<?xml version="1.0" standalone="no"?>
<!DOCTYPE svg PUBLIC "-//W3C//DTD SVG 20010904//EN"
 "http://www.w3.org/TR/2001/REC-SVG-20010904/DTD/svg10.dtd">
<svg version="1.0" xmlns="http://www.w3.org/2000/svg"
 width="449.000000pt" height="449.000000pt" viewBox="0 0 449.000000 449.000000"
 preserveAspectRatio="xMidYMid meet">
<metadata>
Created by potrace 1.11, written by Peter Selinger 2001-2013
</metadata>
<g transform="translate(0.000000,449.000000) scale(0.100000,-0.100000)"
fill="#000000" stroke="none">
<path d="M0 4451 c0 -22 5 -42 13 -44 10 -4 10 -6 0 -6 -10 -1 -13 -52 -13
-221 0 -207 5 -242 27 -207 4 6 25 21 45 32 20 11 94 55 165 97 70 43 136 78
146 78 16 0 17 -7 11 -66 -5 -51 -4 -68 7 -75 11 -6 11 -11 1 -21 -15 -15 -16
-131 -2 -159 10 -18 6 -19 -142 -18 -84 0 -177 4 -205 8 l-53 7 0 -92 c0 -78
3 -95 18 -103 16 -10 16 -10 0 -11 -13 0 -18 -8 -18 -31 0 -24 4 -30 15 -25 8
3 15 1 15 -4 0 -6 -7 -10 -15 -10 -22 0 -19 -53 5 -75 26 -24 25 -60 -2 -79
-21 -15 -19 -16 44 -16 l66 0 7 50 c5 33 12 50 21 50 8 0 14 -7 14 -15 0 -8
-4 -15 -10 -15 -14 0 -12 -27 3 -34 10 -5 9 -7 -1 -12 -20 -10 -13 -24 12 -24
19 0 23 4 19 19 -6 22 13 61 29 61 9 0 9 -3 0 -12 -15 -15 -16 -55 -1 -64 16
-9 30 17 23 41 -4 11 -3 17 1 13 5 -4 15 -2 23 5 13 10 15 9 10 -10 -7 -28 7
-39 28 -22 12 10 16 9 21 -10 9 -35 28 -17 26 25 -2 26 0 35 7 28 6 -6 12 -24
13 -40 1 -16 9 -35 17 -42 12 -11 -10 -13 -130 -11 -80 1 -171 2 -202 1 l-58
-2 0 -70 c0 -66 1 -70 23 -71 21 -1 21 -1 -3 -9 -17 -5 -19 -8 -7 -9 21 -1 23
-21 2 -21 -12 0 -14 -127 -14 -990 l0 -991 21 -8 c14 -5 17 -10 10 -15 -7 -4
-12 -18 -12 -31 0 -13 -5 -25 -10 -27 -7 -2 -9 -99 -8 -280 l3 -276 135 165
c297 364 390 481 390 495 0 6 3 8 7 5 3 -4 15 1 26 10 20 18 20 17 12 -7 -5
-14 -11 -191 -14 -395 l-6 -370 -190 -6 c-104 -4 -229 -7 -277 -8 l-88 -1 0
-90 c0 -87 1 -91 25 -102 28 -12 33 -28 10 -28 -8 0 -15 5 -15 10 0 6 -4 10
-10 10 -16 0 -12 -241 4 -262 11 -16 32 -18 157 -18 97 0 139 3 129 10 -11 7
1 9 40 9 50 -2 52 -2 20 -9 -26 -5 -13 -7 47 -8 46 0 86 4 89 9 10 17 -6 25
-17 9 -8 -12 -9 -11 -7 5 5 28 33 26 32 -2 -1 -23 11 -28 40 -17 21 8 20 21
-1 27 -13 3 -12 5 5 6 16 1 26 -6 29 -19 4 -16 14 -20 44 -20 25 0 41 6 47 16
8 15 10 15 15 0 10 -26 61 -20 77 9 7 14 17 25 22 25 5 0 4 -9 -2 -19 -14 -27
-13 -31 10 -31 11 0 20 4 20 10 0 5 9 14 21 20 17 10 21 8 26 -9 6 -24 33 -28
33 -5 0 14 1 14 16 0 23 -24 53 -21 47 4 -3 11 0 20 6 20 6 0 11 -9 11 -20 0
-16 7 -20 30 -20 35 0 37 6 13 33 -14 16 -15 19 -3 15 8 -2 19 -14 25 -26 10
-22 35 -31 35 -13 0 5 9 13 20 16 13 4 20 16 21 33 1 21 4 18 12 -16 8 -35 14
-42 33 -42 22 0 24 4 24 45 0 25 -4 45 -10 45 -5 0 -10 5 -10 10 0 6 9 10 20
10 18 0 20 -7 20 -55 l0 -55 44 0 c29 0 46 5 50 15 3 8 5 69 5 135 l0 120
-162 1 c-114 1 -150 4 -122 10 22 4 97 8 166 8 l126 1 0 55 c0 31 -4 58 -8 61
-5 3 -3 13 3 24 8 13 9 22 1 32 -6 7 -7 22 -3 33 4 11 4 28 -1 37 -5 9 -5 19
-1 22 9 6 8 74 -2 97 -4 8 -2 29 5 45 l11 29 17 -34 c12 -26 13 -35 4 -38 -16
-6 -18 -89 -3 -98 7 -4 7 -11 2 -18 -5 -7 -9 -65 -9 -129 l1 -117 144 1 c104
0 142 3 138 12 -3 6 -21 49 -40 96 -26 66 -35 79 -38 60 -2 -14 -4 1 -5 33 -1
43 2 57 13 57 15 0 19 -16 5 -22 -5 -1 12 -56 37 -121 l46 -118 56 1 c30 1 57
1 60 0 18 -6 112 -5 116 2 3 4 15 3 26 -3 21 -11 21 -12 3 -25 -10 -7 -23 -10
-29 -6 -18 12 -216 10 -216 -2 0 -5 16 -52 36 -102 26 -68 39 -91 50 -87 11 4
14 -3 12 -28 l-3 -34 107 -3 107 -3 3 133 3 133 280 0 280 0 3 -132 3 -133 87
0 c55 0 92 4 100 12 7 7 12 8 12 2 0 -6 16 -10 35 -11 26 -1 35 3 36 15 0 14
1 15 7 2 8 -18 29 -19 58 -3 17 10 26 9 44 -4 18 -13 27 -14 41 -4 11 6 19 7
19 2 0 -5 31 -9 69 -10 58 -1 70 2 74 17 4 16 5 16 6 0 1 -14 10 -18 42 -18
24 0 38 4 34 10 -3 6 -2 10 4 10 5 0 12 -6 14 -12 3 -7 6 -3 6 9 1 12 5 24 10
27 4 3 6 -6 3 -19 -4 -22 -1 -25 26 -25 21 0 32 6 35 18 4 16 5 16 6 0 1 -20
21 -25 21 -5 0 8 3 8 9 -2 8 -12 12 -12 25 -2 9 8 16 9 16 5 0 -14 123 -15
132 -1 6 9 8 9 8 0 0 -19 18 -16 23 4 4 17 5 17 6 1 1 -21 46 -25 54 -5 4 9 6
9 6 0 1 -9 24 -13 79 -13 75 0 79 1 110 34 38 40 181 138 235 161 120 50 333
60 455 21 l22 -7 0 161 c0 109 -3 159 -10 155 -6 -4 -8 -16 -4 -27 5 -16 3
-20 -9 -15 -9 3 -18 1 -20 -6 -8 -21 -15 -3 -10 25 3 17 13 28 29 32 23 6 24
9 24 107 l0 100 -387 -1 -388 -1 -1 123 0 123 5 -115 c5 -91 9 -115 21 -115 8
0 17 11 21 25 7 24 7 24 8 3 1 -13 4 -23 9 -24 53 -5 72 -3 72 11 0 10 3 11 8
4 4 -6 24 -13 44 -16 35 -4 38 -2 39 22 2 23 2 23 6 3 4 -18 11 -23 38 -23 18
0 36 6 39 13 5 9 7 9 12 0 3 -7 21 -13 39 -13 27 0 34 5 38 23 l4 22 2 -22 c1
-20 7 -23 41 -23 25 0 40 5 40 13 0 9 2 9 8 -1 6 -9 37 -12 108 -11 54 0 104
0 109 -1 6 -1 23 -2 38 -1 l28 1 -3 101 -3 102 -92 51 c-50 28 -95 55 -100 60
-11 11 111 -50 159 -80 l38 -24 0 79 0 80 -98 64 c-53 35 -117 76 -142 91 -42
26 -106 65 -270 166 -36 22 -103 65 -150 95 -47 30 -91 54 -97 55 -10 0 -13
-40 -13 -167 0 -91 -3 -163 -7 -159 -5 4 -6 84 -5 178 l4 171 29 24 c35 29 37
58 7 90 -26 28 -16 44 11 19 32 -29 36 -71 11 -106 -12 -17 -20 -33 -18 -35 7
-7 223 -148 268 -175 25 -15 83 -51 130 -80 47 -29 105 -65 130 -80 25 -15 82
-50 127 -79 l83 -51 0 115 0 115 -60 0 c-33 0 -60 4 -60 8 0 11 96 148 110
157 6 4 10 94 10 250 l0 244 -32 4 -33 4 33 1 32 2 0 106 c0 89 -2 105 -14 95
-11 -9 -13 -5 -12 19 1 20 5 29 13 25 10 -3 13 83 13 396 l0 400 -93 -3 c-89
-3 -92 -4 -89 -25 2 -13 -2 -23 -7 -23 -6 0 -11 9 -11 20 0 19 -7 20 -199 20
-191 0 -200 -1 -206 -20 -3 -11 -4 -24 0 -29 3 -5 1 -12 -4 -15 -10 -7 -21 16
-21 45 0 16 -7 19 -52 19 -38 0 -49 3 -41 11 6 6 29 10 51 7 l39 -3 6 85 c3
47 3 123 0 168 -5 68 -9 82 -22 80 -8 -2 -18 -14 -21 -28 -6 -27 -50 -42 -50
-17 0 7 -12 19 -26 26 -23 10 -30 9 -50 -10 l-24 -22 -26 24 c-18 17 -23 19
-18 6 3 -9 2 -17 -4 -17 -28 0 -18 103 11 108 21 4 23 -14 2 -22 -16 -6 -21
-36 -7 -36 5 0 17 9 27 20 10 11 24 20 32 20 8 0 3 -10 -14 -24 -24 -20 -25
-26 -14 -40 19 -23 28 -20 36 11 6 27 21 43 39 43 4 0 6 -6 3 -14 -7 -18 11
-36 29 -29 10 4 14 -3 14 -23 0 -26 1 -27 17 -12 15 15 15 21 3 45 -24 46 -24
49 -3 31 11 -10 29 -18 41 -18 19 0 22 6 22 41 0 32 -3 40 -15 36 -25 -10 -27
12 -5 43 12 17 25 30 30 30 11 0 52 -71 45 -78 -2 -3 -14 3 -26 13 l-20 19 6
-79 c10 -138 15 -163 32 -169 15 -6 15 -8 0 -19 -12 -9 -17 -34 -19 -102 -4
-106 -12 -100 139 -90 82 6 103 10 99 21 -3 7 -1 16 4 19 6 4 10 -3 10 -14 0
-20 6 -21 83 -21 46 0 125 3 175 6 l92 7 0 620 c0 343 -4 617 -9 611 -4 -5
-16 -40 -26 -77 -10 -37 -22 -70 -27 -73 -12 -8 -10 16 6 69 13 44 13 47 -4
47 -23 0 -44 26 -34 41 5 9 10 6 15 -9 11 -30 27 -27 47 8 9 16 20 30 25 30 4
0 7 25 7 55 l0 55 -114 0 c-66 0 -117 -4 -121 -10 -3 -5 -11 -10 -16 -10 -6 0
-7 4 -4 10 4 6 -70 10 -215 9 l-220 0 -16 -25 c-9 -13 -23 -24 -32 -24 -13 0
-13 2 1 18 25 28 21 32 -25 31 -37 -1 -39 -2 -18 -9 24 -8 23 -8 -7 -9 -18 -1
-33 4 -33 9 0 14 -27 12 -34 -2 -5 -10 -7 -10 -12 0 -9 18 -55 16 -48 -3 5
-11 2 -13 -10 -9 -9 3 -16 10 -16 15 0 14 -104 11 -118 -3 -9 -9 -12 -9 -12 0
0 17 -20 15 -41 -3 -15 -14 -18 -14 -32 0 -17 17 -67 21 -67 5 0 -5 10 -10 22
-10 15 0 19 -3 12 -10 -14 -14 -44 -2 -44 16 0 10 -12 14 -39 14 -31 0 -40 -4
-46 -22 l-8 -23 -4 23 c-4 20 -10 22 -73 22 -43 0 -70 -4 -72 -12 -3 -9 -12
-9 -38 0 -18 7 -50 12 -70 12 -30 0 -39 -5 -48 -25 -6 -14 -16 -25 -22 -25
-13 0 -13 17 0 25 21 13 8 25 -27 24 -30 0 -34 -2 -18 -9 18 -7 19 -8 3 -15
-22 -9 -51 1 -43 15 4 6 -6 10 -24 10 -31 0 -42 -14 -18 -23 7 -3 5 -6 -6 -6
-10 -1 -20 6 -23 14 -8 19 -94 21 -94 3 0 -20 -50 -19 -51 1 0 10 -4 7 -11 -9
-11 -25 -11 -25 -15 -2 -5 27 -29 29 -38 2 -8 -26 -30 -26 -48 1 -9 13 -23 19
-36 17 -23 -3 -25 -24 -3 -22 7 1 11 -3 9 -10 -7 -21 -42 -12 -45 12 -3 21 -8
22 -78 22 -52 0 -74 -4 -74 -12 0 -10 -2 -10 -8 0 -5 7 -26 11 -50 10 -33 -1
-42 -5 -45 -22 l-4 -21 -2 21 c-1 19 -7 21 -85 22 -80 1 -85 -1 -89 -21 l-4
-22 -2 22 c-1 21 -6 22 -60 22 -50 -1 -61 -4 -70 -23 -11 -21 -11 -21 -5 2 4
16 1 22 -10 22 -9 0 -16 -4 -16 -10 0 -5 -7 -10 -16 -10 -8 0 -12 5 -8 11 7
12 -65 8 -101 -5 -16 -6 -17 -6 -5 3 11 8 -5 11 -65 11 -50 0 -86 -5 -93 -12
-8 -8 -12 -8 -12 -1 0 6 -15 11 -34 11 -30 0 -35 -4 -39 -26 l-4 -27 -2 26 -1
27 -449 1 c-462 1 -526 -3 -483 -35 16 -12 15 -15 -12 -43 l-30 -31 30 0 c28
0 30 -3 30 -35 0 -28 -4 -35 -19 -35 -14 0 -17 4 -10 13 16 21 9 42 -14 45
-18 3 -22 -3 -26 -30 -4 -31 -4 -30 -5 8 -2 32 3 46 24 65 l25 24 -21 17 c-12
10 -19 22 -15 28 3 5 0 10 -7 10 -7 0 -23 -26 -34 -57 -12 -32 -37 -100 -55
-150 -19 -51 -38 -93 -44 -93 -5 0 -15 11 -22 25 -12 26 -5 33 14 14 11 -11
16 0 81 176 l30 80 -85 3 c-62 2 -89 -1 -94 -10 -5 -7 -3 -16 4 -20 9 -6 8
-10 -3 -17 -20 -14 -33 -2 -27 25 4 24 3 24 -79 24 l-84 0 0 -39z m791 5 c12
-25 5 -76 -9 -76 -4 0 -6 16 -4 35 2 19 -1 42 -8 50 -9 11 -9 15 -1 15 6 0 16
-11 22 -24z m569 20 c0 -3 -4 -8 -10 -11 -5 -3 -10 -1 -10 4 0 6 5 11 10 11 6
0 10 -2 10 -4z m-824 -28 c-21 -29 -20 -55 2 -67 15 -9 15 -10 1 -11 -38 0
-47 50 -17 88 18 22 30 13 14 -10z m181 -20 c-1 -14 4 -23 13 -23 8 0 16 -4
18 -10 5 -17 -6 -45 -18 -45 -7 0 -9 8 -5 19 6 20 -15 34 -38 25 -9 -3 -13 3
-13 18 1 14 9 26 21 30 11 3 21 6 22 7 2 1 2 -9 0 -21z m-121 -6 c-1 -10 6
-16 17 -16 12 1 17 -5 16 -25 -1 -17 -3 -20 -6 -8 -4 15 -17 21 -49 20 -19 -1
-13 43 6 44 11 1 17 -5 16 -15z m3539 -44 c5 -33 4 -48 -4 -48 -6 0 -12 8 -13
18 0 9 -2 22 -2 29 -2 21 -16 27 -16 7 0 -10 -8 -28 -16 -39 -16 -19 -16 -19
-9 4 16 55 37 93 45 85 5 -5 11 -30 15 -56z m-3975 44 c0 -5 -13 -7 -28 -4
-18 2 -33 -2 -41 -12 -11 -13 -9 -17 15 -26 33 -13 44 -27 37 -47 -11 -29 -83
-39 -83 -11 0 5 5 6 11 3 14 -9 59 3 59 15 0 5 -13 16 -30 25 -34 17 -39 39
-12 54 21 13 72 14 72 3z m3890 -32 c0 -7 -13 -8 -34 -4 -34 6 -35 5 -45 -33
-5 -21 -13 -55 -17 -75 -3 -21 -10 -38 -14 -38 -13 0 -33 30 -26 37 4 4 11 2
15 -6 5 -8 13 11 21 51 6 35 14 66 17 71 7 11 83 8 83 -3z m-1649 -26 c-22
-28 -28 -69 -11 -79 6 -3 10 -11 10 -17 0 -6 -9 -3 -20 7 -11 10 -20 25 -20
33 0 26 32 82 47 82 11 0 10 -6 -6 -26z m-2166 6 c-3 -5 -10 -10 -16 -10 -5 0
-9 5 -9 10 0 6 7 10 16 10 8 0 12 -4 9 -10z m1969 -45 c-4 -32 -3 -45 5 -45 7
0 9 -5 5 -11 -11 -18 -21 3 -27 54 -3 36 -1 47 10 47 11 0 13 -9 7 -45z m566
-19 c-28 -49 -50 -77 -50 -62 0 5 31 61 57 104 8 13 17 21 20 18 3 -2 -9 -30
-27 -60z m428 -7 c3 -36 -21 -80 -35 -65 -4 5 -2 11 5 13 18 7 16 82 -3 89 -8
4 -15 11 -15 16 0 6 10 4 23 -4 14 -10 23 -27 25 -49z m-1698 21 c6 0 10 8 10
18 0 14 2 15 10 2 5 -8 15 -15 22 -15 7 0 14 -13 16 -30 3 -23 1 -27 -8 -18
-7 6 -19 9 -26 6 -8 -3 -14 1 -14 11 0 9 -4 16 -10 16 -5 0 -10 -6 -10 -14 0
-8 -4 -18 -10 -21 -6 -4 -10 11 -10 37 1 34 3 39 11 26 5 -10 14 -18 19 -18z
m259 4 c12 -15 21 -31 21 -37 0 -17 -32 -47 -49 -47 -11 0 -9 4 7 16 27 19 28
34 1 68 -11 14 -16 26 -10 26 5 0 19 -12 30 -26z m259 -1 c-17 -38 -48 -90
-48 -80 0 17 43 107 51 107 5 0 3 -12 -3 -27z m678 10 c17 -22 18 -65 2 -81
-21 -21 -32 -13 -13 8 17 19 18 22 2 55 -18 37 -13 46 9 18z m410 0 c27 -36
12 -93 -24 -93 -9 0 -6 7 9 19 22 17 22 21 9 47 -8 16 -16 32 -18 37 -7 14 11
7 24 -10z m-1484 -15 c-17 -17 -15 -48 3 -48 8 0 15 -4 15 -10 0 -14 -23 -13
-38 2 -7 7 -12 19 -12 27 0 17 31 54 38 46 3 -3 0 -11 -6 -17z m1201 -8 c-15
-26 -16 -34 -5 -51 17 -27 5 -40 -14 -15 -19 26 -18 39 7 70 28 35 34 33 12
-4z m-1673 -20 c0 -37 -2 -39 -22 -31 -27 10 -35 36 -18 56 23 28 40 17 40
-25z m920 25 c10 -12 10 -18 0 -30 -9 -10 -9 -15 -1 -15 6 0 11 -4 11 -10 0
-5 -9 -10 -21 -10 -14 0 -19 6 -17 18 1 9 -1 23 -5 30 -9 13 -1 32 12 32 5 0
14 -7 21 -15z m430 7 c0 -4 -10 -13 -22 -21 -21 -13 -21 -14 -3 -27 18 -13 17
-14 -8 -14 -33 0 -36 24 -4 42 22 12 22 12 -8 19 -29 6 -29 7 8 8 20 0 37 -2
37 -7z m550 -32 c0 -22 -4 -40 -9 -40 -9 0 -20 67 -12 75 13 14 21 1 21 -35z
m-1830 20 c0 -5 -4 -10 -9 -10 -5 0 -13 -10 -16 -21 -6 -17 -9 -19 -16 -8 -14
22 -11 37 9 42 29 8 32 7 32 -3z m48 -1 c-25 -14 -24 -43 2 -36 21 5 28 -7 10
-18 -17 -10 -50 5 -50 24 0 21 19 41 40 41 12 -1 12 -2 -2 -11z m75 4 c-22 -8
-15 -41 10 -46 19 -3 20 -4 5 -11 -27 -12 -48 0 -48 27 0 28 8 37 29 36 10 0
12 -2 4 -6z m104 -8 c7 -20 -24 -55 -42 -49 -20 8 -27 35 -14 50 15 19 48 18
56 -1z m843 -19 c-1 -28 -2 -29 -14 -13 -9 12 -16 14 -21 7 -9 -14 -25 -3 -25
19 0 13 8 18 30 18 27 0 30 -4 30 -31z m274 0 c-5 -12 -10 -14 -20 -5 -10 8
-11 14 -1 24 15 17 30 4 21 -19z m68 -1 c4 -31 2 -35 -20 -35 -21 0 -22 2 -12
15 7 8 10 24 7 35 -3 12 0 20 8 20 7 0 15 -15 17 -35z m911 0 c14 -30 15 -35
2 -35 -8 0 -15 -5 -15 -11 0 -5 3 -8 8 -6 4 3 7 -19 7 -49 0 -30 -3 -54 -7
-54 -5 0 -8 -58 -8 -130 l0 -130 171 0 171 0 29 29 c16 16 29 33 29 38 0 18
-70 55 -95 51 -14 -3 -32 0 -41 7 -22 15 82 4 112 -13 12 -6 24 -8 28 -5 9 10
116 21 116 12 0 -8 -52 -19 -92 -19 -23 0 -29 -4 -24 -16 3 -9 6 -31 6 -50 l0
-34 80 0 c64 0 80 3 80 15 0 8 2 15 5 15 10 0 75 -34 75 -39 0 -3 -15 -16 -32
-28 -32 -23 -33 -23 -40 -3 -7 19 -17 20 -293 20 l-285 0 0 -75 c0 -43 -4 -75
-10 -75 -6 0 -10 32 -10 75 l0 75 -81 0 c-51 0 -78 4 -74 10 3 6 40 10 81 10
l74 0 0 190 c0 162 -2 190 -15 190 -19 0 -19 15 1 45 21 33 27 32 47 -10z
m-1841 13 c-17 -17 -15 -28 6 -28 16 -1 16 -1 0 -11 -21 -11 -59 3 -39 15 16
10 13 24 -6 29 -10 3 -2 5 17 6 26 1 31 -2 22 -11z m258 -23 c0 -19 -2 -35 -5
-35 -9 0 -25 51 -19 61 12 20 24 7 24 -26z m961 11 c-21 -23 -22 -25 -4 -29
10 -3 4 -5 -14 -6 -38 -1 -43 13 -10 31 l22 12 -25 7 c-21 6 -19 7 14 8 l39 1
-22 -24z m1367 7 c2 -9 -7 -13 -30 -12 -27 0 -29 2 -13 8 19 8 18 9 -5 14 -18
4 -16 5 9 4 19 -1 36 -8 39 -14z m-1295 0 c-7 -2 -19 -2 -25 0 -7 3 -2 5 12 5
14 0 19 -2 13 -5z m-2215 -15 c51 3 72 2 72 -7 0 -9 -61 -11 -240 -9 -132 2
-240 6 -240 10 0 11 85 14 215 7 66 -4 153 -4 193 -1z m1072 2 c0 -5 -4 -10
-9 -10 -5 0 -16 -3 -25 -6 -11 -4 -16 -1 -16 10 0 10 9 16 25 16 14 0 25 -4
25 -10z m-896 -387 c-4 -208 -7 -379 -8 -380 -1 -1 -121 -5 -269 -9 -176 -4
-267 -3 -267 3 0 6 8 21 19 34 10 13 116 164 236 334 262 372 278 394 288 395
4 0 5 -170 1 -377z m2891 297 c0 -30 -5 -45 -15 -48 -12 -4 -13 -2 -2 9 6 7
12 25 12 39 0 14 -6 32 -12 39 -11 11 -10 13 2 9 10 -3 15 -18 15 -48z m-3235
8 c0 11 5 24 10 27 6 4 10 -10 10 -34 0 -48 -8 -51 -41 -15 l-24 26 -6 -29
c-6 -23 -7 -21 -8 16 l-1 45 30 -29 c28 -27 30 -28 30 -7z m3030 14 c0 -4 -5
-13 -12 -20 -8 -8 -8 -15 3 -28 13 -16 12 -17 -5 -11 -12 5 -22 3 -27 -4 -4
-7 -7 4 -6 23 1 25 5 34 14 31 7 -3 13 0 13 6 0 6 5 11 10 11 6 0 10 -4 10 -8z
m131 -72 c-8 -40 -9 -42 -10 -12 -1 21 -6 32 -16 32 -8 0 -15 7 -15 15 0 8 6
12 14 9 9 -3 17 3 22 18 8 21 9 21 11 3 2 -11 -1 -40 -6 -65z m-1686 10 c0
-51 -2 -55 -25 -57 -25 -3 -25 -3 -2 7 26 11 27 14 6 34 -14 15 -14 16 0 16
23 0 21 47 -1 54 -14 4 -14 4 2 3 17 -2 20 -10 20 -57z m125 -10 c-4 -25 -8
-35 -9 -22 0 12 -7 22 -13 23 -10 0 -10 2 0 6 6 2 12 16 12 31 0 15 4 22 9 17
5 -6 5 -30 1 -55z m103 -32 c6 -4 8 -10 5 -13 -16 -16 -28 10 -26 58 l1 52 4
-45 c3 -24 10 -48 16 -52z m305 30 c-2 -35 -8 -53 -18 -55 -12 -4 -12 -3 -1 5
9 6 12 25 10 56 -2 25 -1 46 4 46 4 0 7 -23 5 -52z m367 2 c0 -27 -3 -50 -7
-50 -5 0 -8 23 -8 50 0 28 3 50 8 50 4 0 7 -22 7 -50z m365 -5 c0 -30 -3 -55
-7 -55 -5 0 -8 25 -8 55 0 30 3 55 8 55 4 0 7 -25 7 -55z m-580 35 c8 13 10
13 10 -2 0 -9 -5 -29 -10 -44 l-11 -27 -19 36 c-25 46 -25 50 0 35 17 -11 22
-10 30 2z m107 -5 c14 18 15 18 9 2 -3 -10 -6 -23 -6 -28 0 -6 -4 -8 -9 -5 -5
4 -7 -3 -4 -14 9 -33 -6 -22 -22 16 -19 46 -19 55 1 29 l15 -20 16 20z m793
-22 c0 -22 -2 -25 -10 -13 -13 20 -13 40 0 40 6 0 10 -12 10 -27z m135 18 c3
-5 1 -12 -5 -16 -5 -3 -10 1 -10 9 0 18 6 21 15 7z m675 -72 c0 -27 -24 -68
-34 -58 -4 4 1 20 11 37 17 30 17 32 -5 61 -30 41 -27 54 3 16 14 -16 25 -42
25 -56z m-2100 52 c0 -3 -7 -14 -15 -24 -7 -11 -11 -25 -8 -33 3 -8 0 -14 -6
-14 -11 0 -16 72 -5 83 7 7 34 -2 34 -12z m17 -28 c-3 -10 -5 -2 -5 17 0 19 2
27 5 18 2 -10 2 -26 0 -35z m738 13 c0 -19 -3 -32 -7 -29 -14 8 -8 63 6 63 1
0 1 -15 1 -34z m165 -8 c0 -9 -4 -19 -8 -22 -4 -2 -8 11 -8 30 0 20 3 29 8 21
4 -6 8 -20 8 -29z m-3169 -8 c4 -19 7 -36 6 -37 -1 -1 -15 -3 -31 -5 -35 -4
-47 19 -15 30 15 6 18 11 11 16 -19 11 -14 38 5 34 10 -2 20 -17 24 -38z
m2007 17 c0 -13 -7 -24 -14 -24 -8 0 -14 9 -14 19 0 11 5 16 10 13 6 -3 10 -1
10 4 0 6 2 11 4 11 2 0 4 -10 4 -23z m415 -28 c-6 -6 -7 3 -4 23 4 28 6 29 9
9 2 -13 0 -27 -5 -32z m147 31 c0 -11 -6 -20 -13 -20 -7 0 -13 9 -14 20 -1 11
4 20 13 20 8 0 14 -9 14 -20z m335 10 c3 -5 -3 -10 -15 -10 -12 0 -18 5 -15
10 3 6 10 10 15 10 5 0 12 -4 15 -10z m-1449 -12 c4 -6 0 -16 -9 -23 -10 -7
-17 -18 -17 -24 0 -7 -4 -9 -10 -6 -5 3 -10 19 -10 36 0 22 5 29 19 29 11 0
23 -5 27 -12z m154 2 c0 -5 7 -10 15 -10 11 0 13 -4 6 -17 -5 -10 -12 -27 -16
-38 l-6 -20 -11 20 c-7 11 -18 25 -25 30 -19 14 -6 45 18 45 10 0 19 -4 19
-10z m66 -25 c11 -47 16 -144 10 -171 -4 -16 -13 -24 -28 -24 -21 0 -21 1 -3
14 21 15 24 53 11 156 -9 66 -3 80 10 25z m199 25 c3 -5 2 -10 -4 -10 -5 0
-13 5 -16 10 -3 6 -2 10 4 10 5 0 13 -4 16 -10z m253 -22 c-16 -48 -26 -55
-25 -17 2 28 10 40 34 48 1 1 -3 -14 -9 -31z m192 17 c0 -8 -4 -15 -10 -15 -5
0 -10 7 -10 15 0 8 5 15 10 15 6 0 10 -7 10 -15z m69 -26 c-7 -19 -16 -38 -21
-44 -5 -5 -4 3 1 18 6 16 8 33 5 39 -4 6 0 14 7 19 19 12 21 7 8 -32z m404 -3
c-10 -19 -21 -36 -25 -36 -8 0 10 47 25 68 18 24 18 5 0 -32z m177 30 c0 -7
-7 -19 -15 -26 -13 -11 -15 -8 -15 14 0 16 5 26 15 26 8 0 15 -6 15 -14z m86
-5 c0 -11 -5 -17 -13 -14 -7 3 -13 11 -13 19 0 8 6 14 13 14 7 0 13 -8 13 -19z
m73 -22 c-7 -19 -16 -38 -22 -44 -7 -7 -7 -3 -2 10 4 11 7 29 7 40 -1 11 4 23
11 27 17 10 18 5 6 -33z m836 22 c-3 -11 -1 -22 5 -26 13 -8 13 -25 0 -25 -12
0 -24 45 -15 59 10 18 17 12 10 -8z m-2955 -1 c0 -5 -20 -10 -45 -10 -25 0
-45 5 -45 10 0 6 20 10 45 10 25 0 45 -4 45 -10z m310 -26 c0 -19 -4 -33 -8
-30 -12 7 -14 66 -2 66 5 0 10 -16 10 -36z m1360 21 c0 -8 -4 -15 -10 -15 -5
0 -10 7 -10 15 0 8 5 15 10 15 6 0 10 -7 10 -15z m1367 -16 c0 -19 -5 -25 -16
-22 -23 6 -24 52 -2 50 12 -1 18 -10 18 -28z m163 14 c0 9 4 17 9 17 10 0 4
-53 -10 -100 -7 -23 -7 -22 -8 10 -1 19 -8 44 -16 54 -8 10 -12 23 -9 28 3 5
12 1 20 -9 12 -17 13 -17 14 0z m-3310 -55 c-3 -40 -10 -63 -19 -66 -10 -3
-12 0 -8 12 3 8 9 38 13 66 9 71 20 62 14 -12z m630 36 c0 -17 -1 -17 -37 -3
l-28 12 25 7 c30 8 40 4 40 -16z m1541 -17 c-10 -9 -11 -8 -5 6 3 10 9 15 12
12 3 -3 0 -11 -7 -18z m1032 -17 c-5 -20 -15 -25 -26 -13 -4 3 -2 12 4 20 9
10 8 13 0 13 -7 0 -9 5 -6 10 11 18 34 -8 28 -30z m164 12 c2 -14 -2 -22 -11
-22 -14 0 -28 34 -18 45 11 10 25 -1 29 -23z m-2907 8 c0 -5 -4 -10 -10 -10
-5 0 -10 5 -10 10 0 6 5 10 10 10 6 0 10 -4 10 -10z m990 6 c0 -3 -4 -8 -10
-11 -5 -3 -10 -1 -10 4 0 6 5 11 10 11 6 0 10 -2 10 -4z m1540 -12 c0 -7 -40
-11 -115 -11 -82 -1 -115 2 -115 10 0 9 34 12 115 12 76 0 115 -4 115 -11z
m-2113 -14 c6 -23 14 -25 31 -8 14 14 17 -3 3 -17 -5 -6 -11 -21 -13 -34 -4
-34 -28 -40 -28 -7 0 16 -6 26 -14 26 -22 0 -28 17 -16 40 14 26 30 26 37 0z
m2381 3 c-2 -9 -8 -18 -15 -20 -7 -3 -9 3 -6 16 6 25 26 28 21 4z m-3828 -33
c0 -16 5 -30 11 -30 5 0 7 -4 4 -10 -7 -12 -55 -14 -55 -2 0 4 6 14 12 20 10
10 10 15 -1 21 -16 10 -6 31 15 31 9 0 14 -11 14 -30z m639 6 c15 -27 8 -46
-17 -46 -15 0 -15 2 -2 10 10 7 11 12 4 18 -6 4 -13 15 -17 25 -10 26 18 21
32 -7z m2221 -35 c0 -5 -6 -11 -14 -14 -9 -3 -12 -15 -9 -31 3 -15 1 -26 -6
-26 -6 0 -11 11 -11 24 0 13 -3 31 -6 40 -5 12 0 16 20 16 14 0 26 -4 26 -9z
m-182 -8 c-12 -3 -19 -15 -19 -36 l-2 -32 -4 30 c-3 16 -10 33 -16 37 -7 4 4
7 23 7 19 -1 27 -3 18 -6z m-578 -26 c12 -4 12 -6 -2 -6 -9 -1 -19 -11 -21
-23 -2 -13 -5 -6 -5 17 -1 22 2 35 6 29 4 -6 14 -14 22 -17z m-1175 3 c5 -8
12 -7 23 2 11 9 16 10 19 2 2 -7 13 -9 25 -6 18 4 20 2 14 -14 -4 -10 -9 -24
-10 -31 -4 -23 -15 -26 -39 -10 -22 14 -24 14 -36 -5 -17 -28 -24 -16 -10 15
9 21 9 30 -1 42 -8 9 -8 15 -2 15 6 0 14 -5 17 -10z m216 -6 c10 -13 8 -19
-13 -39 -29 -27 -38 -23 -38 15 0 42 26 54 51 24z m1626 10 c-3 -3 -12 -4 -19
-1 -8 3 -5 6 6 6 11 1 17 -2 13 -5z m-2590 -20 c3 -8 1 -26 -5 -39 -8 -18 -8
-25 1 -29 7 -2 2 -5 -10 -5 -23 -1 -31 13 -14 23 5 3 11 15 14 27 4 15 2 19
-9 15 -8 -3 -14 1 -14 9 0 20 29 19 37 -1z m1791 4 c9 -9 9 -15 -2 -27 -8 -9
-16 -25 -19 -36 -3 -13 -5 -9 -6 13 -1 24 3 32 17 33 16 1 16 2 0 6 -10 2 -18
9 -18 14 0 13 14 11 28 -3z m628 -1 c10 4 12 0 8 -11 -5 -14 -24 -23 -24 -12
0 2 -2 10 -3 18 -2 7 -2 10 0 6 2 -4 11 -4 19 -1z m-572 -38 c-7 -13 -24 7
-24 29 0 10 4 10 16 -2 8 -9 12 -21 8 -27z m213 -13 c-13 -25 -15 -25 -20 -6
-3 11 -3 29 0 41 5 18 8 19 20 7 12 -12 12 -18 0 -42z m313 47 c0 -2 -9 -16
-20 -30 l-20 -26 0 30 c0 22 5 29 20 30 11 1 20 -1 20 -4z m223 -8 c-3 -13
-53 -20 -53 -7 0 15 13 23 35 20 11 -2 19 -7 18 -13z m-575 -12 c2 -8 -5 -13
-17 -13 -12 0 -21 6 -21 16 0 18 31 15 38 -3z m-1158 -17 c0 -3 -4 -8 -10 -11
-5 -3 -10 -1 -10 4 0 6 5 11 10 11 6 0 10 -2 10 -4z m13 -291 c44 -104 95
-228 114 -275 19 -46 46 -106 59 -132 35 -69 32 -103 -12 -144 -46 -42 -79
-57 -176 -83 -63 -16 -88 -18 -140 -10 -121 17 -177 40 -250 101 -63 52 -63
49 9 206 18 41 33 75 33 77 0 10 213 483 227 504 l16 25 20 -40 c11 -21 56
-124 100 -229z m-1314 192 c-8 -7 -15 -25 -15 -42 1 -25 -3 -30 -26 -33 -26
-3 -27 -2 -21 32 4 29 2 36 -10 36 -10 0 -18 -12 -23 -35 -3 -19 -10 -35 -14
-35 -14 0 -17 33 -6 63 10 25 14 27 71 27 49 -1 57 -3 44 -13z m1771 -3 c0 -8
-5 -12 -10 -9 -6 4 -8 11 -5 16 9 14 15 11 15 -7z m1298 -14 c3 -17 0 -21 -12
-17 -8 3 -18 2 -21 -3 -10 -16 -33 -11 -37 8 -2 11 6 21 22 29 33 15 44 11 48
-17z m125 10 c6 -24 -12 -38 -24 -19 -7 12 -9 12 -9 0 0 -11 -3 -11 -16 0 -14
11 -18 11 -29 -4 -17 -24 -25 -21 -25 9 0 20 4 24 19 19 11 -3 22 -2 24 2 3 5
17 9 30 11 17 1 26 -4 30 -18z m-1653 -15 c0 -8 -3 -16 -7 -18 -5 -3 -8 5 -8
18 0 13 3 21 8 18 4 -2 7 -10 7 -18z m865 4 c8 -25 -3 -39 -15 -20 -5 8 -15
11 -26 7 -10 -4 -21 -1 -26 6 -14 23 -9 28 26 28 26 0 36 -5 41 -21z m289 -2
c7 -26 -2 -36 -14 -17 -7 10 -10 11 -10 3 0 -7 -4 -13 -10 -13 -5 0 -10 10
-10 23 0 30 36 34 44 4z m-1272 -4 c4 -13 -2 -18 -19 -19 -27 -2 -30 11 -5 25
9 6 18 11 18 11 1 0 4 -8 6 -17z m38 -4 c0 -11 -4 -18 -10 -14 -5 3 -7 12 -3
20 7 21 13 19 13 -6z m43 1 c3 -11 1 -18 -4 -14 -5 3 -9 12 -9 20 0 20 7 17
13 -6z m162 -5 c0 -14 -3 -25 -7 -25 -10 0 -10 34 -1 43 3 4 7 7 7 7 1 0 1
-11 1 -25z m327 -17 c-6 -6 -7 0 -4 19 5 21 7 23 10 9 2 -10 0 -22 -6 -28z
m88 11 c0 -12 -7 -19 -19 -19 -17 0 -18 3 -8 24 13 27 27 25 27 -5z m1394 -26
l7 -52 -28 3 c-32 4 -46 42 -19 52 9 3 16 14 16 23 0 16 10 35 15 29 1 -2 5
-26 9 -55z m136 -3 c0 -33 -4 -60 -10 -60 -6 0 -10 27 -10 60 0 33 4 60 10 60
6 0 10 -27 10 -60z m654 16 c-3 -14 -10 -26 -15 -26 -10 0 -12 31 -3 55 10 26
26 1 18 -29z m-2894 18 c0 -8 -4 -12 -10 -9 -5 3 -10 10 -10 16 0 5 5 9 10 9
6 0 10 -7 10 -16z m350 1 c0 -8 -4 -15 -10 -15 -5 0 -10 7 -10 15 0 8 5 15 10
15 6 0 10 -7 10 -15z m2266 -93 c-14 -13 -17 11 -10 60 l9 53 3 -54 c2 -29 1
-56 -2 -59z m-2695 75 c-10 -9 -11 -8 -5 6 3 10 9 15 12 12 3 -3 0 -11 -7 -18z
m569 7 c0 -8 -5 -12 -10 -9 -6 4 -8 11 -5 16 9 14 15 11 15 -7z m665 -18 c6 2
11 -7 11 -21 1 -14 -2 -25 -7 -25 -5 0 -9 6 -9 13 -1 7 -6 5 -14 -5 -18 -25
-29 -22 -15 3 8 15 8 24 0 32 -18 18 -12 31 7 15 9 -9 22 -14 27 -12z m-207
-15 c2 -14 0 -21 -7 -17 -5 4 -19 1 -30 -6 -27 -16 -37 -4 -23 28 16 33 55 30
60 -5z m658 -6 c-3 -8 0 -16 7 -18 7 -2 8 -8 4 -13 -13 -13 -42 12 -39 32 2
11 0 15 -5 11 -4 -5 -8 -17 -8 -28 0 -25 -19 -25 -23 -1 -5 30 25 54 49 41 12
-6 18 -17 15 -24z m-329 -5 c11 -28 2 -42 -12 -20 -5 8 -11 7 -21 -1 -22 -18
-39 3 -25 30 17 31 45 26 58 -9z m168 20 c-28 -12 -37 -12 -30 0 3 6 16 10 28
9 21 0 21 -1 2 -9z m875 0 c0 -5 -5 -10 -12 -10 -9 0 -9 -3 0 -12 17 -17 15
-33 -2 -19 -11 9 -15 9 -18 -1 -3 -7 -7 -1 -10 14 -3 15 -2 25 3 23 4 -3 10
-1 14 5 8 13 25 13 25 0z m481 -12 l0 -23 11 23 c6 12 15 22 21 22 5 0 7 -10
3 -22 -3 -13 -11 -49 -18 -80 -15 -71 -32 -77 -23 -8 5 34 3 50 -4 50 -6 0
-11 14 -11 30 0 34 20 42 21 8z m-613 -5 c-2 -11 -14 -19 -28 -20 -22 -2 -22
-2 -5 6 19 8 19 8 0 19 -18 10 -18 11 8 12 22 0 28 -4 25 -17z m326 -2 c3 -9
9 -23 13 -31 5 -13 4 -13 -10 -1 -14 11 -20 11 -33 0 -14 -11 -16 -10 -13 6 2
11 0 25 -4 31 -4 7 2 12 17 12 14 0 27 -8 30 -17z m-1056 -8 c-10 -2 -26 -2
-35 0 -10 3 -2 5 17 5 19 0 27 -2 18 -5z m972 -3 c0 -5 -6 -10 -14 -10 -8 0
-18 5 -21 10 -3 6 3 10 14 10 12 0 21 -4 21 -10z m-70 -31 c0 -17 -4 -28 -10
-24 -5 3 -10 17 -10 31 0 13 5 24 10 24 6 0 10 -14 10 -31z m221 -2 c6 -22 4
-27 -11 -27 -14 0 -18 7 -18 30 1 37 19 34 29 -3z m-2324 -15 c-14 -3 -16 -7
-6 -18 7 -9 8 -14 1 -14 -6 0 -13 -8 -15 -17 -3 -10 -5 -1 -6 19 -1 35 13 52
34 39 6 -3 2 -7 -8 -9z m-1607 -21 c-8 -16 -8 -27 1 -42 9 -17 8 -20 -3 -17
-17 6 -23 55 -7 74 17 20 23 10 9 -15z m2852 -2 c-3 -32 -5 -135 -3 -232 l1
-79 228 2 c125 1 231 1 236 1 5 -1 1 -10 -9 -21 -17 -19 -19 -19 -36 -4 -16
15 -42 16 -214 11 -108 -2 -198 -7 -200 -9 -2 -2 -5 -31 -6 -66 -3 -82 -19
-80 -19 3 l0 65 -30 0 c-16 0 -30 5 -30 10 0 6 15 10 33 10 l32 0 -3 148 c-2
81 -8 148 -13 150 -13 5 11 44 24 39 7 -2 11 -15 9 -28z m-2737 -20 c4 -11 1
-26 -5 -34 -18 -22 -32 -18 -18 5 10 16 10 24 0 40 -6 11 -12 23 -12 26 0 13
29 -18 35 -37z m-255 16 c-10 -12 -9 -16 5 -21 10 -4 22 1 31 15 8 11 20 21
27 21 8 0 8 -3 -1 -12 -18 -18 -15 -51 3 -44 8 3 15 1 15 -3 0 -15 -32 -22
-47 -10 -10 9 -17 9 -25 1 -17 -17 -33 -15 -19 2 9 10 8 16 -4 26 -12 10 -13
16 -4 26 6 8 16 14 21 14 6 0 5 -7 -2 -15z m204 -7 c-3 -5 -1 -15 6 -22 8 -11
6 -14 -13 -12 -18 1 -24 7 -24 27 0 20 4 25 19 21 10 -2 15 -8 12 -14z m1398
-4 c-12 -76 -13 -76 -22 -29 -4 22 -6 44 -3 48 9 15 28 0 25 -19z m223 16 c-3
-5 -13 -10 -21 -10 -8 0 -14 5 -14 10 0 6 9 10 21 10 11 0 17 -4 14 -10z m120
-14 c-3 -6 -8 -19 -11 -28 -7 -21 -24 -24 -24 -5 0 32 13 55 26 50 8 -3 12
-11 9 -17z m-245 -1 c0 -18 0 -18 -41 0 l-34 14 38 1 c26 0 37 -4 37 -15z
m184 7 c2 -4 -4 -8 -14 -8 -10 0 -16 4 -14 8 3 4 9 8 14 8 5 0 11 -4 14 -8z
m-61 -19 c-7 -2 -19 -2 -25 0 -7 3 -2 5 12 5 14 0 19 -2 13 -5z m1410 -9 c-3
-9 0 -20 8 -25 9 -6 10 -9 2 -9 -6 0 -15 5 -18 10 -7 11 0 40 9 40 3 0 3 -7
-1 -16z m57 2 c0 -8 9 -18 21 -21 11 -4 18 -9 15 -13 -9 -9 -56 20 -56 35 0 7
5 13 10 13 6 0 10 -6 10 -14z m80 -50 c-9 -8 -11 -6 -6 11 4 12 2 24 -5 28 -8
6 -7 10 2 16 18 11 26 -39 9 -55z m-244 -46 c0 -56 -3 -95 -8 -87 -4 8 -8 27
-8 43 0 16 0 50 0 77 -1 40 5 67 13 67 1 0 2 -45 3 -100z m52 28 l-1 -73 -7
65 c-3 36 -5 68 -3 73 10 18 13 2 11 -65z m258 37 c-3 -8 -11 -15 -18 -14 -10
0 -10 2 0 6 6 2 12 14 13 26 0 12 3 16 6 9 3 -7 2 -19 -1 -27z m-1144 -47 c-7
-7 -12 -21 -12 -32 0 -17 -2 -18 -10 -6 -14 21 -12 57 3 63 19 7 33 -11 19
-25z m379 -5 l-4 -38 -8 29 c-5 16 -14 33 -21 37 -9 6 -5 9 12 9 24 0 26 -3
21 -37z m-639 -13 c9 0 9 -3 1 -11 -17 -17 -33 -2 -32 29 0 26 1 26 9 5 5 -13
15 -23 22 -23z m1038 1 c0 -30 -4 -40 -20 -44 -15 -4 -20 0 -20 13 0 11 5 22
10 25 6 3 10 15 10 26 0 10 5 19 10 19 6 0 10 -17 10 -39z m-990 -7 c0 -8 -4
-12 -10 -9 -5 3 -10 13 -10 21 0 8 5 12 10 9 6 -3 10 -13 10 -21z m457 11 c3
-9 -2 -22 -12 -29 -10 -7 -15 -18 -11 -24 3 -6 2 -13 -4 -17 -11 -7 -14 67 -3
78 11 12 23 8 30 -8z m243 -1 c0 -10 -7 -14 -22 -12 -32 5 -35 28 -4 28 17 0
26 -5 26 -16z m78 -31 c-9 -10 -18 -27 -20 -38 -3 -14 -7 -9 -12 18 -10 48 8
77 32 53 14 -14 14 -17 0 -33z m-255 23 c4 -10 0 -12 -14 -9 -10 3 -16 9 -13
14 8 13 21 11 27 -5z m1640 -39 c-30 -49 -83 -106 -130 -139 -25 -17 -43 -37
-43 -48 0 -22 -16 -36 -22 -19 -3 9 -9 9 -25 0 -12 -6 -30 -11 -40 -11 -13 1
-9 5 12 17 18 10 25 18 17 21 -19 6 17 31 45 32 11 0 45 18 73 41 41 32 51 45
46 62 -6 24 10 48 27 41 7 -2 21 10 32 28 10 18 20 27 23 20 2 -7 -5 -27 -15
-45z m-1923 28 c0 -8 0 -18 1 -22 0 -4 -4 -9 -10 -11 -6 -2 -11 8 -11 22 0 14
5 26 10 26 6 0 10 -7 10 -15z m453 -12 c-7 -2 -21 -2 -30 0 -10 3 -4 5 12 5
17 0 24 -2 18 -5z m-969 -12 c3 -5 3 -23 0 -41 -6 -26 -9 -29 -19 -18 -7 7
-15 25 -19 41 -5 22 -3 27 13 27 11 0 22 -4 25 -9z m-1142 -57 c3 -18 -28 -29
-38 -13 -3 5 0 9 6 9 6 0 11 10 10 23 -4 48 12 35 22 -19z m-632 42 c0 -11
-19 -15 -25 -6 -3 5 1 10 9 10 9 0 16 -2 16 -4z m2266 -85 c13 -46 26 -86 29
-89 3 -3 46 14 95 38 49 24 92 41 96 38 3 -4 -97 -59 -222 -123 -126 -63 -267
-136 -314 -161 -72 -39 -90 -45 -120 -39 -19 4 -46 7 -60 7 -14 0 -28 5 -32
11 -14 22 -8 27 13 15 17 -10 23 -10 26 0 7 19 31 14 38 -7 6 -19 8 -19 53 -4
26 9 48 17 50 18 2 2 -4 20 -13 41 -9 22 -35 88 -56 149 -22 60 -47 117 -55
126 -21 23 -17 39 9 39 27 1 116 9 212 20 39 4 106 7 149 6 l80 -1 22 -84z
m1169 58 c5 -14 1 -27 -11 -38 -17 -15 -17 -15 -4 2 11 15 11 23 2 38 -7 10
-8 19 -3 19 5 0 13 -10 16 -21z m-275 -4 c0 -8 -4 -15 -10 -15 -5 0 -10 7 -10
15 0 8 5 15 10 15 6 0 10 -7 10 -15z m48 -5 c-11 -17 -10 -22 2 -30 9 -6 10
-10 3 -10 -6 0 -15 5 -18 10 -8 13 4 50 16 50 5 0 4 -9 -3 -20z m632 10 c0 -5
-11 -10 -25 -10 -14 0 -25 5 -25 10 0 6 11 10 25 10 14 0 25 -4 25 -10z m140
0 c0 -5 -7 -10 -15 -10 -8 0 -15 5 -15 10 0 6 7 10 15 10 8 0 15 -4 15 -10z
m-723 -15 c0 -8 -6 -16 -14 -19 -15 -6 -13 15 2 26 6 4 10 8 11 8 0 0 1 -7 1
-15z m106 -17 c-7 -40 -13 -49 -13 -20 0 11 -5 24 -11 28 -8 4 -7 9 2 15 24
15 29 10 22 -23z m730 25 c-7 -2 -19 -2 -25 0 -7 3 -2 5 12 5 14 0 19 -2 13
-5z m-693 -18 c0 -8 -4 -15 -10 -15 -5 0 -10 7 -10 15 0 8 5 15 10 15 6 0 10
-7 10 -15z m-110 -9 c0 -8 -4 -18 -10 -21 -5 -3 -10 3 -10 14 0 12 5 21 10 21
6 0 10 -6 10 -14z m887 -33 c-3 -10 -5 -4 -5 12 0 17 2 24 5 18 2 -7 2 -21 0
-30z m-456 -67 c13 8 -1 -57 -20 -88 -22 -40 -82 -38 -61 2 7 14 5 19 -11 23
-28 8 -49 -2 -42 -19 8 -22 -8 -17 -39 13 -27 26 -28 26 -28 5 0 -11 -4 -23
-9 -26 -12 -8 -18 31 -13 76 4 33 6 36 37 35 28 -1 30 -3 19 -15 -17 -16 -17
-15 -2 -47 14 -32 34 -27 31 9 -1 15 2 24 8 20 5 -3 17 0 25 7 18 15 32 3 16
-13 -20 -20 -14 -31 13 -26 31 6 40 -5 25 -32 -8 -16 -8 -20 4 -20 8 0 17 14
21 31 5 24 2 38 -14 60 -28 38 -26 45 5 20 15 -11 30 -18 35 -15z m469 2 c0
-35 -12 -30 -17 7 -2 14 1 25 7 25 5 0 10 -14 10 -32z m-3516 -20 c23 -32 20
-65 -9 -93 -25 -26 -45 -32 -45 -15 0 6 5 10 11 10 16 0 38 31 39 53 0 10 -7
29 -16 42 -20 31 -1 33 20 3z m106 8 c0 -8 -6 -16 -13 -19 -7 -2 -25 -27 -40
-55 l-27 -50 22 -41 c22 -41 22 -42 3 -76 -10 -19 -22 -35 -27 -35 -12 0 -9
12 7 34 19 25 19 50 -1 91 -14 31 -14 36 7 77 41 81 69 111 69 74z m3120 4 c0
-5 -13 -10 -30 -10 -16 0 -30 5 -30 10 0 6 14 10 30 10 17 0 30 -4 30 -10z
m-3837 -52 c-5 -24 -2 -34 13 -45 19 -14 19 -15 0 -11 -30 5 -42 32 -28 62 16
35 23 33 15 -6z m162 4 c-2 -3 0 -11 6 -18 11 -14 -2 -26 -18 -16 -6 4 -13 17
-17 29 -6 18 -4 21 14 16 11 -3 18 -8 15 -11z m355 3 c-11 -13 -10 -18 6 -31
18 -15 18 -15 -5 -10 -14 3 -30 1 -36 -4 -8 -7 -12 -1 -12 19 0 19 5 27 13 24
6 -2 15 0 19 6 3 6 11 11 17 11 6 0 6 -6 -2 -15z m236 0 c3 -8 -1 -24 -10 -37
-21 -30 -20 -35 9 -42 l25 -6 -23 -38 c-13 -20 -31 -56 -41 -79 -11 -24 -23
-43 -28 -43 -11 0 -12 -3 30 77 37 72 39 83 14 83 -30 0 -33 11 -11 42 12 16
18 32 15 36 -4 3 -11 0 -16 -8 -5 -8 -13 -11 -17 -6 -4 4 1 14 11 22 25 18 35
18 42 -1z m-651 -4 c3 -6 -4 -15 -15 -21 -27 -14 -27 -44 0 -37 23 6 27 -8 5
-17 -25 -9 -45 5 -45 33 0 40 38 69 55 42z m240 -2 c4 -5 -7 -15 -24 -22 -32
-12 -37 -34 -7 -29 9 2 16 -2 16 -8 0 -11 -20 -13 -44 -4 -22 8 -20 23 6 51
23 25 43 29 53 12z m1945 -7 c0 -5 -7 -17 -15 -28 -8 -10 -15 -28 -15 -38 0
-26 -17 -9 -25 26 -6 23 -3 29 16 37 31 12 39 13 39 3z m-1844 -11 c-7 -11
-56 -21 -56 -10 0 4 8 10 18 12 30 8 43 7 38 -2z m1197 -5 c6 -15 -6 -29 -35
-39 -10 -4 -18 -13 -18 -22 0 -8 -4 -15 -10 -15 -11 0 -14 73 -3 83 12 13 61
7 66 -7z m2490 -1 c4 -8 2 -17 -3 -20 -6 -4 -10 3 -10 14 0 25 6 27 13 6z
m-3883 -5 c-20 -13 -40 -13 -40 0 0 6 12 10 28 10 21 0 24 -2 12 -10z m3720
-16 c0 -14 -4 -23 -9 -20 -5 3 -7 15 -4 26 7 28 13 25 13 -6z m-930 -31 c0
-33 -3 -38 -25 -39 -28 -2 -32 8 -10 30 8 8 15 22 15 30 0 9 5 16 10 16 6 0
10 -17 10 -37z m101 -10 c2 -23 0 -45 -4 -49 -4 -4 -7 17 -7 46 0 62 7 64 11
3z m256 25 c-3 -8 -6 -5 -6 6 -1 11 2 17 5 13 3 -3 4 -12 1 -19z m-1088 -10
c8 -21 5 -26 -15 -31 -4 -1 -8 10 -10 26 -3 33 13 36 25 5z m895 -15 c-3 -21
-11 -42 -16 -48 -6 -6 -7 0 -3 16 4 16 2 30 -4 33 -6 4 -11 12 -11 17 0 6 4 8
9 4 5 -3 12 -1 16 5 12 20 16 9 9 -27z m139 0 c-3 -18 -10 -33 -15 -33 -5 0
-6 5 -3 11 4 6 -1 17 -11 24 -18 14 -18 14 4 15 12 0 22 5 22 12 0 6 2 9 4 7
2 -2 1 -19 -1 -36z m-993 -3 c0 -16 -4 -30 -8 -30 -5 0 -7 14 -4 30 2 17 6 30
8 30 2 0 4 -13 4 -30z m85 20 c3 -5 2 -10 -4 -10 -5 0 -13 5 -16 10 -3 6 -2
10 4 10 5 0 13 -4 16 -10z m295 -21 c0 -5 -7 -9 -15 -9 -15 0 -20 12 -9 23 8
8 24 -1 24 -14z m-2130 -18 c0 -40 -17 -48 -22 -11 -3 17 -2 32 0 35 13 13 22
2 22 -24z m2050 19 c0 -5 -7 -10 -15 -10 -8 0 -15 -4 -15 -10 0 -5 -8 -10 -17
-10 -15 0 -14 2 3 19 21 21 44 27 44 11z m50 -21 c0 -5 -7 -9 -15 -9 -9 0 -15
9 -15 21 0 18 2 19 15 9 8 -7 15 -16 15 -21z m140 0 c0 -5 -7 -9 -15 -9 -9 0
-15 9 -15 21 0 18 2 19 15 9 8 -7 15 -16 15 -21z m40 11 c0 -11 -4 -20 -8 -20
-4 0 -8 9 -8 20 0 11 4 20 8 20 4 0 8 -9 8 -20z m227 5 c0 -8 -6 -15 -14 -15
-7 0 -13 7 -13 15 0 8 6 15 13 15 8 0 14 -7 14 -15z m178 5 c-3 -5 -10 -10
-16 -10 -5 0 -9 5 -9 10 0 6 7 10 16 10 8 0 12 -4 9 -10z m845 -17 c0 -20 -3
-24 -11 -16 -7 7 -9 19 -6 27 10 24 17 19 17 -11z m-3938 -15 c-11 -18 -29
-49 -41 -68 -32 -54 -25 -25 10 41 18 32 36 59 41 59 5 0 1 -15 -10 -32z m248
-47 c0 -10 -9 -29 -21 -42 -18 -21 -20 -21 -14 -4 17 48 17 58 -4 85 -31 43
-25 50 9 12 17 -18 30 -41 30 -51z m59 54 c2 -13 -1 -16 -13 -12 -9 4 -16 1
-17 -6 0 -11 -17 20 -18 35 -2 17 44 0 48 -17z m1939 13 c-2 -6 -10 -14 -16
-16 -7 -2 -10 2 -6 12 7 18 28 22 22 4z m40 -6 c2 -7 -3 -12 -12 -12 -9 0 -16
7 -16 16 0 17 22 14 28 -4z m752 3 c0 -8 -2 -15 -4 -15 -2 0 -6 7 -10 15 -3 8
-1 15 4 15 6 0 10 -7 10 -15z m150 -25 c5 0 11 8 13 18 4 13 5 11 6 -5 1 -18
-4 -23 -24 -23 -18 0 -25 5 -25 18 0 27 14 37 18 13 2 -12 7 -21 12 -21z
m-830 20 c0 -5 -4 -10 -10 -10 -5 0 -10 5 -10 10 0 6 5 10 10 10 6 0 10 -4 10
-10z m-2003 -6 c-3 -3 -12 -4 -19 -1 -8 3 -5 6 6 6 11 1 17 -2 13 -5z m-281
-17 c17 6 17 5 5 -10 -11 -14 -11 -21 3 -42 18 -27 7 -35 -14 -10 -12 14 -15
14 -31 -1 -11 -10 -19 -12 -19 -6 0 6 5 14 11 18 6 4 9 19 5 36 -5 25 -4 28 8
19 7 -6 22 -8 32 -4z m560 -38 c-4 -25 -2 -39 7 -42 25 -9 0 -16 -36 -10 -28
4 -37 10 -35 22 3 10 12 15 26 14 22 -3 32 22 11 29 -5 2 -7 11 -4 20 4 10 13
14 22 11 11 -5 14 -15 9 -44z m1946 29 c-7 -7 -12 -8 -12 -2 0 6 3 14 7 17 3
4 9 5 12 2 2 -3 -1 -11 -7 -17z m-2702 -10 c1 -21 2 -21 11 -5 6 9 14 15 18
12 9 -5 -28 -148 -42 -161 -11 -11 -8 19 7 69 12 40 12 48 0 58 -16 13 -19 49
-4 49 6 0 10 -10 10 -22z m1923 -13 c-3 -8 -9 -15 -14 -15 -5 0 -6 -12 -3 -27
8 -34 2 -29 -20 15 -16 32 -16 33 6 41 28 10 39 5 31 -14z m-1996 -16 c-14
-22 -24 -24 -30 -6 -7 21 3 35 23 30 16 -4 17 -8 7 -24z m2033 -19 c0 -11 4
-20 10 -20 5 0 12 -11 16 -25 3 -14 9 -25 14 -25 11 0 37 33 44 58 4 12 12 22
18 22 6 0 8 -9 3 -22 -3 -13 -16 -65 -28 -115 -14 -58 -27 -93 -35 -93 -13 0
-11 14 14 98 12 41 11 43 -8 40 -12 -2 -25 5 -32 17 -6 11 -14 22 -17 25 -12
10 -19 60 -9 60 5 0 10 -9 10 -20z m671 -64 c16 9 39 -16 39 -42 0 -31 -42
-53 -65 -34 -15 12 -14 41 3 130 6 35 7 34 10 -13 2 -28 7 -45 13 -41z m963
69 c7 -18 -19 -45 -45 -45 -13 0 -19 7 -19 23 0 13 3 27 7 30 12 13 51 7 57
-8z m-3757 -31 c10 -22 10 -24 -8 -19 -14 5 -19 2 -19 -11 0 -11 -3 -14 -9 -8
-13 13 -2 74 13 68 6 -2 16 -16 23 -30z m434 21 c9 6 11 4 6 -8 -3 -8 1 -21 9
-28 8 -6 12 -14 9 -17 -3 -3 -14 3 -25 13 -19 17 -20 17 -20 0 0 -12 -3 -15
-9 -9 -5 5 -7 22 -4 37 4 19 8 24 13 17 5 -7 13 -9 21 -5z m3639 -16 c0 -11
-4 -17 -10 -14 -5 3 -10 13 -10 21 0 8 5 14 10 14 6 0 10 -9 10 -21z m-1381
-38 c-19 -40 -19 -44 -4 -68 9 -13 14 -27 12 -30 -7 -7 -47 39 -47 55 0 17 17
51 38 75 23 27 24 15 1 -32z m411 24 c0 -28 24 -28 46 0 31 38 41 26 20 -25
-9 -22 -16 -51 -16 -64 0 -13 -7 -30 -17 -37 -15 -13 -15 -11 -9 24 4 21 10
45 13 53 3 9 -2 14 -14 14 -10 0 -24 5 -31 12 -14 14 -16 52 -2 43 6 -3 10
-12 10 -20z m190 -55 c0 -30 -43 -90 -55 -78 -4 3 3 16 14 27 26 26 27 75 2
100 -11 11 -16 22 -13 26 12 12 52 -46 52 -75z m-834 43 c10 -15 15 -16 25 -5
7 6 20 12 28 12 13 0 13 -3 -2 -17 -16 -16 -15 -18 5 -40 26 -28 16 -43 -13
-18 -17 17 -22 17 -29 5 -6 -8 -10 -19 -10 -23 0 -5 -5 -5 -11 -1 -8 4 -8 9 0
17 16 16 14 42 -4 57 -15 13 -20 30 -9 30 4 0 13 -8 20 -17z m754 -13 c0 -5
-4 -10 -10 -10 -5 0 -10 5 -10 10 0 6 5 10 10 10 6 0 10 -4 10 -10z m-1605
-17 c-3 -10 -13 -49 -22 -88 -17 -78 -40 -116 -29 -50 3 22 9 51 12 64 6 20 4
22 -13 17 -24 -8 -53 16 -53 42 1 15 3 14 15 -2 8 -11 15 -24 15 -28 0 -17 41
14 50 38 5 13 15 24 21 24 7 0 8 -7 4 -17z m649 -16 c-2 -53 -4 -57 -14 -57
-7 0 -10 19 -9 45 2 25 8 45 13 45 6 0 10 -15 10 -33z m-599 14 c3 -5 1 -12
-5 -16 -5 -3 -10 1 -10 9 0 18 6 21 15 7z m723 -24 c4 1 9 -1 11 -3 2 -2 -3
-4 -12 -4 -9 0 -17 -7 -17 -15 0 -8 -7 -15 -15 -15 -16 0 -20 26 -8 56 6 16 7
15 20 -2 8 -10 17 -18 21 -17z m627 1 c0 -14 3 -30 7 -34 9 -8 1 -24 -12 -24
-5 0 -11 8 -15 19 -4 13 -12 17 -30 13 -30 -5 -31 1 -7 34 23 33 57 28 57 -8z
m-1185 -19 c0 -16 -4 -29 -10 -29 -5 0 -10 16 -10 36 0 21 4 33 10 29 6 -3 10
-19 10 -36z m-85 -5 c-18 -19 -25 -18 -25 4 0 26 11 34 26 21 11 -9 11 -13 -1
-25z m255 26 c0 -5 -12 -10 -27 -10 -22 0 -25 2 -13 10 20 13 40 13 40 0z
m618 -16 c2 -17 -2 -21 -28 -21 -24 0 -30 4 -30 22 0 31 54 30 58 -1z m312 16
c0 -5 -9 -10 -20 -10 -11 0 -20 5 -20 10 0 6 9 10 20 10 11 0 20 -4 20 -10z
m280 -21 c0 -20 -4 -29 -12 -27 -7 3 -12 14 -11 26 1 31 2 32 13 32 6 0 10
-14 10 -31z m-1550 -15 c0 -8 -4 -14 -10 -14 -5 0 -10 9 -10 21 0 11 5 17 10
14 6 -3 10 -13 10 -21z m338 9 c-10 -2 -26 -2 -35 0 -10 3 -2 5 17 5 19 0 27
-2 18 -5z m2062 -12 c-16 -31 -13 -71 7 -71 13 0 14 -3 5 -12 -8 -8 -15 -8
-27 2 -18 15 -20 71 -3 88 19 19 30 14 18 -7z m207 -12 c14 -28 -2 -61 -32
-67 -14 -3 -13 0 4 17 20 20 21 23 5 52 -12 24 -13 30 -2 27 7 -3 18 -15 25
-29z m-475 3 c-17 -5 -15 -22 3 -22 8 0 15 -5 15 -11 0 -7 11 0 25 15 26 28
45 30 53 7 2 -7 -5 -15 -17 -18 -25 -6 -28 -33 -3 -33 14 0 15 -2 2 -10 -20
-13 -26 -12 -44 5 -9 9 -17 11 -21 5 -8 -13 -55 -13 -55 0 0 6 10 10 23 10 20
1 20 2 5 11 -10 5 -18 18 -18 29 0 19 18 31 35 22 5 -3 4 -7 -3 -10z m420 -4
c-9 -9 -9 -15 0 -25 6 -7 8 -17 4 -20 -4 -4 -11 -1 -16 7 -8 12 -10 12 -16 -3
-10 -28 -21 -19 -20 18 1 28 4 34 18 29 9 -2 19 0 23 6 4 6 10 9 13 5 3 -3 0
-11 -6 -17z m-280 -10 c-7 -7 -12 -20 -12 -31 0 -14 5 -17 21 -12 15 5 20 3
17 -6 -6 -20 -42 -23 -57 -6 -15 19 5 67 28 67 12 0 12 -3 3 -12z m213 2 c3
-5 -3 -10 -14 -10 -11 0 -23 5 -26 10 -3 6 3 10 14 10 11 0 23 -4 26 -10z
m233 -12 c3 -14 -3 -18 -27 -18 -29 0 -41 17 -24 34 13 13 48 1 51 -16z
m-4171 -53 c-3 -59 -17 -59 -17 0 0 25 4 45 9 45 5 0 9 -20 8 -45z m551 23
c24 -24 9 -88 -22 -88 -6 0 -5 5 2 12 15 15 15 61 0 76 -7 7 -8 12 -2 12 5 0
15 -5 22 -12z m74 -13 c12 -27 -2 -75 -22 -75 -13 0 -13 17 0 25 14 9 13 48
-2 63 -9 9 -9 12 0 12 7 0 18 -11 24 -25z m-278 -10 c-8 -13 -13 -29 -9 -35 3
-5 2 -10 -4 -10 -19 0 -22 20 -5 45 9 14 20 25 25 25 5 0 2 -11 -7 -25z m80
-8 c-9 -25 -25 -21 -20 6 3 12 5 24 5 27 1 2 6 -1 11 -6 6 -6 8 -18 4 -27z
m-665 2 c-6 -12 -9 -30 -6 -40 6 -22 -11 -26 -19 -4 -4 8 1 26 10 40 20 30 31
33 15 4z m99 -20 c-1 -12 -10 -25 -18 -27 -13 -4 -13 -3 -2 11 8 10 11 25 7
39 -6 18 -4 20 5 12 6 -7 10 -22 8 -35z m238 6 c-1 -36 -12 -46 -22 -21 -5 12
11 56 20 56 1 0 2 -16 2 -35z m-276 10 c-6 -8 -9 -19 -5 -25 3 -5 -1 -10 -9
-10 -9 0 -16 3 -16 6 0 13 22 44 32 44 7 0 6 -5 -2 -15z m336 -20 c0 -14 -7
-25 -13 -25 -14 0 -16 10 -7 34 9 25 22 19 20 -9z m144 15 c0 -5 -7 -10 -15
-10 -9 0 -15 -9 -15 -25 0 -14 -4 -25 -10 -25 -13 0 -13 12 0 44 9 25 40 37
40 16z m80 -15 c0 -16 -6 -25 -16 -25 -11 0 -14 5 -10 16 3 9 6 20 6 25 0 5 5
9 10 9 6 0 10 -11 10 -25z m131 -18 c-8 -8 -11 -3 -11 19 1 25 2 27 11 11 8
-14 8 -22 0 -30z m-462 8 c3 -16 1 -17 -11 -7 -8 6 -18 9 -21 5 -4 -3 -7 1 -7
11 0 24 34 16 39 -9z m157 -2 c-10 -10 -19 5 -10 18 6 11 8 11 12 0 2 -7 1
-15 -2 -18z m264 7 c0 -5 -4 -10 -10 -10 -5 0 -10 5 -10 10 0 6 5 10 10 10 6
0 10 -4 10 -10z m1558 -29 c-15 -5 -21 7 -13 26 7 17 8 17 15 -2 4 -11 3 -22
-2 -24z m222 34 c0 -21 -45 -87 -63 -94 -29 -11 -32 -7 -13 21 9 14 13 28 9
31 -3 4 -1 7 5 7 5 0 12 -5 14 -12 3 -7 11 2 19 20 12 28 29 43 29 27z m240
-21 c0 -8 -7 -14 -15 -14 -15 0 -21 21 -9 33 10 9 24 -2 24 -19z m-1174 -14
c8 0 14 -10 15 -22 1 -18 4 -15 16 15 9 20 20 37 25 37 6 0 7 -7 2 -17 -4 -10
-8 -33 -8 -50 0 -18 -1 -33 -2 -33 -2 0 -15 5 -31 12 -15 6 -34 10 -42 9 -8
-1 -18 3 -22 11 -7 10 -9 10 -9 -1 0 -11 -4 -9 -15 5 -14 19 -14 18 -15 -3 0
-13 -4 -23 -10 -23 -5 0 -10 11 -10 25 0 22 4 25 34 25 27 0 36 5 42 23 7 18
8 19 12 5 2 -10 10 -18 18 -18z m614 0 c-7 -12 -9 -31 -7 -42 4 -12 1 -18 -6
-15 -15 5 -12 54 4 73 17 21 23 10 9 -16z m236 11 c0 -11 -5 -17 -13 -14 -7 3
-13 11 -13 19 0 8 6 14 13 14 7 0 13 -8 13 -19z m1100 -29 c17 -17 9 -32 -17
-32 -15 0 -19 7 -19 33 0 37 13 59 19 31 2 -10 9 -24 17 -32z m57 28 c3 -13 0
-20 -10 -20 -8 0 -11 5 -8 10 3 6 1 10 -5 10 -6 0 -8 5 -5 10 10 16 22 12 28
-10z m-2424 -7 c10 -10 21 -25 23 -33 4 -11 9 -7 17 13 13 34 24 35 15 2 -4
-15 -1 -32 7 -42 13 -15 11 -16 -16 -8 -16 4 -46 9 -65 11 -19 1 -37 4 -40 4
-3 1 -17 2 -32 2 -16 1 -28 6 -28 14 0 20 19 27 35 14 11 -9 15 -9 15 -1 0 15
27 14 33 -1 3 -7 6 -1 6 15 1 32 5 33 30 10z m591 -16 c0 12 5 25 10 28 13 8
13 -4 -1 -44 -6 -17 -15 -31 -19 -31 -5 0 -16 -3 -25 -7 -14 -5 -16 -3 -7 13
5 11 6 28 1 39 -14 37 -9 40 16 10 23 -28 25 -28 25 -8z m854 18 c-4 -8 -10
-15 -14 -15 -4 0 -10 7 -14 15 -4 10 1 15 14 15 13 0 18 -5 14 -15z m442 -15
c8 0 14 -9 14 -20 0 -26 -40 -28 -41 -2 -1 11 -4 8 -9 -8 -6 -21 -8 -22 -15
-8 -5 14 -10 15 -26 5 -26 -16 -48 5 -30 27 10 12 18 13 32 5 15 -8 21 -6 26
6 5 13 7 14 14 3 7 -10 9 -8 10 7 1 17 2 17 6 3 2 -10 11 -18 19 -18z m51 10
c-1 -11 -7 -20 -13 -20 -7 0 -10 8 -7 20 3 11 9 20 14 20 4 0 7 -9 6 -20z m47
9 c-4 -7 -7 -25 -6 -41 1 -24 -2 -27 -13 -18 -10 9 -11 18 -3 41 5 16 14 29
20 29 5 0 6 -5 2 -11z m1029 -39 c8 0 7 -4 -1 -12 -7 -7 -12 -20 -12 -30 0
-10 -4 -18 -10 -18 -5 0 -10 6 -10 14 0 8 -6 16 -12 19 -10 3 -10 7 -1 19 7 8
10 18 7 21 -4 3 -3 14 1 24 6 16 9 14 17 -9 5 -16 15 -28 21 -28z m-3151 -7
c-2 -13 -8 -23 -12 -23 -9 0 -18 41 -12 58 7 21 29 -10 24 -35z m298 32 c14
-17 10 -47 -9 -53 -9 -3 -11 2 -6 17 4 13 1 28 -5 36 -7 9 -8 15 -2 15 5 0 15
-7 22 -15z m611 -7 c29 -32 23 -43 -21 -43 -29 0 -40 4 -40 15 0 12 -2 12 -8
2 -5 -7 -16 -10 -24 -7 -9 4 -19 2 -23 -4 -3 -6 -13 -11 -21 -11 -20 0 -15 42
6 48 13 5 13 3 1 -11 -12 -15 -11 -17 3 -17 9 0 19 7 23 15 3 9 13 15 22 13 9
-1 22 1 29 5 8 5 12 2 12 -8 0 -9 5 -13 11 -10 6 4 8 13 5 21 -8 21 4 17 25
-8z m61 -13 c-2 -19 -8 -32 -13 -29 -10 6 -12 48 -2 57 14 15 19 6 15 -28z
m96 3 c2 -13 -4 -31 -12 -38 -18 -14 -21 -3 -7 19 6 9 6 22 -1 34 -8 15 -7 18
4 15 7 -3 14 -16 16 -30z m156 5 c-15 -11 -16 -15 -5 -22 9 -6 10 -11 2 -15
-6 -4 -15 -4 -21 -1 -16 10 -12 43 7 54 25 14 40 0 17 -16z m276 7 c-6 -12 -8
-31 -4 -43 6 -20 5 -21 -10 -6 -14 13 -15 20 -5 42 7 15 16 27 21 27 5 0 4 -9
-2 -20z m718 -23 c-5 -35 -23 -29 -24 8 0 28 2 32 13 23 8 -6 13 -20 11 -31z
m383 21 c-4 -13 -6 -29 -3 -37 3 -8 0 -11 -7 -7 -15 9 -14 39 1 54 17 17 19
15 9 -10z m804 -37 c0 -46 -3 -57 -12 -49 -16 13 -17 80 -1 96 7 7 12 12 13
12 0 0 0 -27 0 -59z m-3147 24 c0 -12 -7 -22 -14 -22 -8 0 -14 10 -14 22 0 12
6 22 14 22 7 0 14 -10 14 -22z m412 0 c0 -12 -6 -22 -14 -22 -8 0 -16 10 -18
22 -3 15 1 21 14 21 12 0 18 -8 18 -21z m350 2 c0 -14 -6 -24 -15 -24 -18 0
-18 2 -5 28 14 25 20 24 20 -4z m337 -2 c-21 -15 -22 -29 -1 -21 8 3 12 2 9
-4 -10 -17 -37 -11 -42 9 -3 13 -11 17 -25 13 -15 -4 -19 -2 -13 7 4 7 15 11
25 8 10 -2 24 -1 31 4 20 12 34 -2 16 -16z m189 8 c-4 -9 -1 -20 6 -25 9 -5 4
-8 -14 -8 -30 0 -37 17 -16 38 17 17 31 15 24 -5z m194 -22 c-6 -12 -16 -21
-22 -21 -6 0 -4 8 5 18 10 10 17 25 18 33 0 9 2 10 5 2 3 -7 0 -21 -6 -32z
m156 28 c-14 -9 -16 -13 -5 -20 7 -4 10 -11 6 -15 -3 -4 -13 -1 -22 6 -18 15
-3 40 24 40 13 -1 13 -2 -3 -11z m282 -24 c1 -18 -2 -23 -13 -19 -8 4 -15 17
-15 30 0 31 25 22 28 -11z m164 23 c-17 -17 -15 -28 4 -28 8 0 12 -4 9 -10
-12 -19 -35 -10 -35 13 0 26 7 37 24 37 6 0 5 -5 -2 -12z m60 5 c-6 -2 -10 -9
-7 -14 4 -5 18 -1 33 8 26 17 26 17 13 0 -9 -11 -10 -17 -2 -17 6 0 11 -5 11
-11 0 -6 -9 -9 -20 -6 -11 3 -23 1 -26 -4 -11 -19 -23 -8 -20 19 5 34 4 32 19
31 9 0 9 -2 -1 -6z m298 -23 c0 -21 -5 -30 -16 -30 -13 0 -14 3 -5 14 6 7 9
21 5 30 -3 9 -1 16 5 16 6 0 11 -13 11 -30z m-2266 4 c9 -24 7 -34 -6 -34 -7
0 -14 11 -14 25 -2 28 11 34 20 9z m688 1 c0 -5 -5 -11 -10 -13 -5 -1 -9 4 -9
13 0 9 4 14 9 13 5 -2 10 -8 10 -13z m550 -16 c-5 -33 -10 -35 -29 -16 -14 13
-14 19 -3 32 18 22 36 13 32 -16z m610 19 c-9 -9 -15 -9 -24 0 -9 9 -7 12 12
12 19 0 21 -3 12 -12z m374 -8 c0 -11 -6 -20 -13 -20 -7 0 -13 9 -13 20 0 11
6 20 13 20 7 0 13 -9 13 -20z m200 5 c6 -14 -3 -52 -10 -44 -2 2 -6 16 -10 32
-7 29 10 39 20 12z m-2486 -10 c0 -8 -7 -15 -15 -15 -8 0 -15 7 -15 15 0 8 7
15 15 15 8 0 15 -7 15 -15z m1237 9 c-3 -3 -12 -4 -19 -1 -8 3 -5 6 6 6 11 1
17 -2 13 -5z m1613 -13 c0 -11 2 -26 5 -34 4 -10 -2 -14 -25 -15 -31 -1 -38
15 -24 52 9 23 44 20 44 -3z m73 -31 c-7 -27 -23 -25 -24 3 0 21 -1 21 -11 -3
-10 -24 -10 -24 -18 -5 -11 26 -12 47 -2 41 4 -2 14 -1 22 4 19 12 40 -14 33
-40z m-496 34 c-3 -3 -12 -4 -19 -1 -8 3 -5 6 6 6 11 1 17 -2 13 -5z m-3612
-95 c15 -28 15 -33 0 -55 -8 -13 -23 -24 -32 -24 -14 0 -13 3 5 20 28 26 28
38 0 67 -18 19 -19 23 -5 23 9 0 24 -14 32 -31z m448 3 c11 -23 11 -32 2 -45
-16 -22 -25 -21 -25 1 0 14 -4 13 -19 -7 -21 -28 -61 -22 -61 9 0 24 31 42 51
29 23 -14 29 -11 29 16 0 32 5 32 23 -3z m87 9 c0 -6 -4 -12 -9 -15 -14 -9
-19 -54 -8 -65 8 -8 6 -11 -6 -11 -20 0 -24 49 -7 81 11 20 30 26 30 10z m120
-23 c11 -21 12 -31 2 -52 -6 -14 -19 -26 -28 -26 -16 0 -16 2 1 20 18 20 15
70 -5 70 -6 0 -10 5 -10 11 0 18 24 4 40 -23z m-730 11 c0 6 5 11 11 11 6 0 8
-7 5 -16 -4 -10 1 -22 11 -31 17 -13 16 -14 -9 -9 -16 4 -28 1 -31 -7 -3 -6
-6 -2 -6 10 -1 12 -4 30 -8 40 -6 16 -5 16 10 4 11 -9 17 -10 17 -2z m396 -21
c-20 -29 -20 -38 1 -38 13 0 14 -3 6 -11 -15 -15 -43 -4 -43 16 0 26 19 55 36
55 13 0 13 -2 0 -22z m277 6 c-3 -8 0 -21 7 -29 8 -10 9 -15 2 -15 -6 0 -14 5
-18 12 -5 8 -10 6 -15 -8 -7 -18 -8 -18 -8 3 -1 12 -4 28 -7 36 -4 10 2 15 20
15 17 0 23 -5 19 -14z m-733 -14 c0 -13 -20 -13 -40 0 -12 8 -9 10 13 10 15 0
27 -4 27 -10z m263 -4 c7 -19 -1 -26 -31 -26 -14 0 -22 3 -19 7 4 3 2 12 -4
20 -9 10 -5 13 19 13 16 0 32 -6 35 -14z m137 4 c0 -5 -9 -10 -20 -10 -11 0
-20 5 -20 10 0 6 9 10 20 10 11 0 20 -4 20 -10z m637 -20 c31 -11 65 -50 77
-88 9 -26 21 -29 30 -6 3 8 2 12 -4 9 -5 -3 -14 5 -21 17 -6 13 -21 33 -32 45
-17 20 -18 23 -4 29 25 9 56 -14 65 -49 l9 -32 16 31 c10 19 29 36 48 43 39
14 189 15 189 1 0 -5 6 -7 13 -4 32 12 36 -22 42 -310 3 -158 3 -296 0 -305
-4 -14 -22 -17 -115 -19 l-110 -2 0 195 c0 107 -3 195 -8 195 -9 0 -62 -48
-62 -57 0 -4 10 3 23 15 13 12 26 22 30 22 16 0 5 -37 -18 -63 -27 -30 -61
-33 -59 -5 1 9 -4 14 -10 12 -6 -2 -36 14 -66 36 -52 39 -83 48 -42 13 18 -16
20 -33 25 -179 3 -89 2 -166 -1 -171 -4 -6 -47 -10 -102 -9 l-95 1 0 290 c0
159 1 304 3 322 l4 33 73 0 c39 0 85 -5 102 -10z m880 -12 c7 -5 16 -7 21 -4
20 12 45 -37 76 -150 19 -66 57 -192 86 -282 28 -90 49 -169 47 -177 -4 -9
-26 -13 -78 -12 l-73 2 -18 45 c-9 25 -28 74 -40 110 l-24 65 -67 3 c-53 2
-67 0 -67 -11 0 -8 -20 -57 -44 -110 l-44 -95 -77 -7 c-42 -4 -79 -4 -83 -1
-11 12 68 228 147 399 17 37 31 70 31 74 0 9 70 146 83 161 12 15 102 7 124
-10z m713 -58 l0 -80 -101 0 -102 0 7 -245 7 -245 -64 0 c-40 0 -68 5 -75 13
-5 7 -13 117 -17 250 l-7 238 -42 -3 c-22 -1 -58 -1 -78 0 l-38 2 0 70 0 70
188 3 c103 1 217 3 255 5 l67 2 0 -80z m290 63 c0 -15 2 -16 10 -3 19 31 29
-8 32 -125 l3 -120 70 -3 c122 -5 117 -13 113 139 l-3 130 88 -2 c48 -2 93 -6
100 -11 9 -5 12 -76 12 -295 0 -158 -3 -300 -7 -314 -8 -26 -9 -26 -95 -25
l-88 1 -3 121 c-3 143 7 134 -144 134 l-98 0 0 -125 0 -125 -27 -11 c-15 -5
-47 -9 -72 -7 l-46 3 -1 310 c0 171 1 318 4 328 4 14 16 17 78 17 64 0 74 -2
74 -17z m-238 -43 c4 -60 -4 -95 -21 -95 -9 0 -13 21 -14 73 -2 61 1 72 15 72
12 0 17 -12 20 -50z m1348 -15 c9 0 16 -11 18 -27 2 -16 -1 -28 -7 -28 -6 0
-11 8 -11 17 0 15 -2 14 -15 -3 -13 -17 -14 -14 -13 41 0 43 2 51 7 30 3 -17
12 -30 21 -30z m78 -1 c-9 -20 -9 -30 1 -46 10 -16 10 -19 0 -16 -23 8 -31 32
-20 61 6 15 15 27 21 27 6 0 5 -10 -2 -26z m140 14 c17 -17 15 -43 -8 -69 -16
-20 -19 -21 -20 -7 0 9 5 20 10 23 16 10 12 43 -7 54 -15 9 -15 10 -2 11 8 0
20 -5 27 -12z m-613 -32 c1 -15 7 -31 14 -35 20 -13 -3 -22 -38 -15 -35 7 -40
27 -15 62 20 29 39 23 39 -12z m85 14 c0 -4 -7 -10 -15 -14 -8 -3 -15 -15 -15
-27 0 -29 -6 -22 -13 16 -5 26 -3 30 19 31 13 1 24 -2 24 -6z m60 1 c0 -5 -7
-11 -15 -15 -8 -3 -15 -10 -15 -16 0 -5 7 -10 15 -10 8 0 15 -4 15 -10 0 -16
-40 -11 -47 5 -3 9 3 25 12 35 19 21 35 26 35 11z m60 -1 c0 -5 -4 -10 -10
-10 -5 0 -10 -9 -10 -21 0 -15 5 -19 15 -15 8 3 15 1 15 -3 0 -17 -34 -22 -48
-7 -13 13 -13 18 2 40 17 26 36 35 36 16z m63 3 c-18 -7 -16 -23 2 -23 20 0
19 -39 0 -47 -21 -8 -33 6 -15 17 13 8 12 11 -4 23 -21 16 -14 37 12 36 11 0
12 -3 5 -6z m297 -1 c0 -4 -6 -14 -12 -21 -10 -11 -10 -14 0 -18 19 -7 14 -23
-7 -23 -28 0 -36 18 -16 40 16 17 15 19 -7 23 -18 3 -15 5 10 6 17 0 32 -3 32
-7z m-237 -9 c-19 -7 -16 -31 5 -36 16 -4 16 -4 -1 -12 -10 -4 -23 -3 -29 3
-14 14 0 52 20 51 11 0 12 -3 5 -6z m407 -8 c0 -9 -9 -15 -22 -14 -13 0 -17 3
-9 6 11 5 11 7 0 14 -10 6 -8 9 9 9 13 0 22 -6 22 -15z m-3792 -111 c-6 -32
-25 -26 -20 6 3 21 8 28 14 22 6 -6 8 -18 6 -28z m222 17 c0 -11 -4 -23 -10
-26 -6 -4 -10 5 -10 19 0 14 5 26 10 26 6 0 10 -9 10 -19z m1681 -13 c4 -159
6 -416 2 -430 -2 -10 -10 -18 -17 -18 -10 0 -14 53 -19 233 -3 127 -3 235 0
240 12 20 33 5 34 -25z m-2041 7 c0 -8 -7 -15 -15 -15 -8 0 -15 7 -15 15 0 8
7 15 15 15 8 0 15 -7 15 -15z m54 0 c-7 -17 -7 -17 -29 -9 -13 5 -14 8 -3 15
21 14 38 10 32 -6z m46 0 c0 -8 -4 -15 -10 -15 -5 0 -10 7 -10 15 0 8 5 15 10
15 6 0 10 -7 10 -15z m121 -35 c32 0 25 -47 -11 -65 l-30 -16 1 68 c0 58 2 64
11 41 6 -17 17 -28 29 -28z m53 26 c-3 -9 -10 -16 -15 -16 -14 0 -11 28 4 33
16 6 19 3 11 -17z m-620 -20 c-21 -34 -13 -42 30 -29 37 11 46 8 46 -14 0 -7
-9 -13 -20 -13 -11 0 -20 5 -20 11 0 8 -5 8 -15 -1 -36 -30 -64 30 -29 65 23
23 29 11 8 -19z m304 -20 c3 -37 0 -46 -10 -40 -7 5 -21 7 -30 6 -33 -6 -13
48 22 61 12 4 11 6 -2 6 -10 1 -18 6 -18 12 0 6 8 9 18 7 13 -2 18 -15 20 -52z
m3918 -6 c17 0 24 6 24 20 0 11 5 20 11 20 11 0 9 -12 -19 -92 -9 -27 -19 -48
-23 -48 -5 0 -40 98 -47 130 -1 8 5 5 14 -7 9 -13 27 -23 40 -23z m-4007 -12
c0 -31 -1 -31 -10 -10 -5 13 -7 28 -3 33 10 16 14 9 13 -23z m-309 7 c0 -8 -4
-15 -9 -15 -13 0 -22 16 -14 24 11 11 23 6 23 -9z m230 -4 c0 -16 -28 -20 -34
-5 -4 9 1 14 14 14 11 0 20 -4 20 -9z m47 -7 c-3 -3 -12 -4 -19 -1 -8 3 -5 6
6 6 11 1 17 -2 13 -5z m3399 -27 c18 -10 18 -33 0 -40 -21 -8 -33 11 -28 46 3
18 7 25 10 17 3 -8 11 -19 18 -23z m92 15 c3 -9 -2 -13 -14 -10 -9 1 -19 9
-22 16 -3 9 2 13 14 10 9 -1 19 -9 22 -16z m202 -2 c0 -12 -29 -20 -35 -10 -9
15 4 30 20 23 8 -3 15 -9 15 -13z m90 -20 c6 0 10 -8 8 -17 -7 -36 -33 -19
-35 22 -2 33 -1 36 7 18 5 -13 14 -23 20 -23z m48 23 c2 -8 -5 -13 -17 -13
-12 0 -21 6 -21 16 0 18 31 15 38 -3z m-612 -9 c-3 -9 -6 -22 -6 -30 0 -8 -4
-14 -10 -14 -11 0 -14 43 -3 53 12 13 25 7 19 -9z m226 -18 c1 -10 -1 -21 -7
-22 -5 -2 -11 10 -12 28 -3 33 13 28 19 -6z m502 19 c24 -18 12 -34 -13 -18
-14 9 -21 9 -30 0 -6 -6 -11 -7 -11 -1 0 11 21 34 30 34 3 0 14 -7 24 -15z
m-656 -26 c2 -10 -6 -19 -18 -22 -23 -6 -34 7 -26 29 8 20 40 14 44 -7z m52
-5 c0 -22 -26 -16 -27 5 -1 14 3 18 13 14 8 -3 14 -11 14 -19z m225 16 c3 -5
-1 -10 -9 -10 -9 0 -16 5 -16 10 0 6 4 10 9 10 6 0 13 -4 16 -10z m85 1 c0 -5
3 -16 6 -24 4 -10 -2 -14 -20 -14 -27 0 -30 5 -20 31 7 17 34 22 34 7z m77
-26 c0 -8 -6 -15 -14 -15 -7 0 -13 7 -13 15 0 8 6 15 13 15 8 0 14 -7 14 -15z
m-1052 -201 c0 -105 -2 -119 -17 -122 -16 -3 -18 8 -18 116 0 65 3 122 7 126
21 21 28 -9 28 -120z m-2333 19 c-10 -28 -10 -28 -11 12 -1 28 2 36 10 28 8
-8 8 -19 1 -40z m3208 1 c0 -30 3 -34 19 -29 14 4 20 0 25 -17 8 -33 7 -48 -4
-48 -5 0 -10 9 -10 20 0 25 -9 25 -26 3 -17 -25 -22 -16 -24 42 -2 63 -2 65
10 65 6 0 10 -16 10 -36z m-3250 -1 c0 -21 -3 -23 -14 -14 -11 9 -15 9 -19 -1
-3 -7 -6 -2 -6 12 -1 19 4 26 19 27 15 1 20 -4 20 -24z m-395 -53 c0 -90 -19
-87 -23 3 -2 50 0 67 10 67 9 0 13 -19 13 -70z m63 53 c-2 -10 -10 -18 -18
-18 -8 0 -16 8 -18 18 -2 12 3 17 18 17 15 0 20 -5 18 -17z m52 -47 c0 -36 -3
-67 -7 -69 -5 -3 -8 26 -8 64 0 38 3 69 8 69 4 0 7 -29 7 -64z m3323 24 c8 0
8 -3 -1 -12 -7 -7 -12 -25 -12 -40 0 -15 -4 -28 -10 -28 -12 0 -14 103 -2 114
4 4 8 -2 10 -13 2 -12 8 -21 15 -21z m343 14 c-19 -50 -18 -64 5 -72 13 -5 18
-11 12 -15 -18 -11 -43 3 -49 27 -6 26 11 76 27 76 6 0 8 -7 5 -16z m164 -25
c15 -36 0 -79 -26 -79 -16 0 -16 1 -1 18 21 23 21 42 2 68 -18 24 -19 35 -1
28 8 -3 20 -19 26 -35z m-57 24 c4 -3 -3 -17 -15 -30 -18 -19 -19 -23 -5 -23
9 0 17 -4 17 -10 0 -5 -13 -10 -30 -10 -36 0 -37 6 -7 38 l22 25 -22 -6 c-13
-3 -23 -1 -23 3 0 16 50 26 63 13z m-392 -20 c0 -5 2 -23 5 -40 2 -18 -1 -33
-6 -33 -6 0 -10 5 -10 10 0 6 -11 8 -25 4 -19 -5 -25 -2 -25 10 0 28 58 74 61
49z m-2961 -12 c0 -6 -4 -11 -10 -11 -5 0 -10 -9 -10 -20 0 -11 -4 -20 -10
-20 -5 0 -10 9 -10 20 0 14 -7 20 -24 20 -17 0 -26 -8 -34 -32 l-10 -33 -1 33
c-1 17 -6 32 -12 32 -6 0 -8 -8 -4 -19 3 -11 -1 -24 -12 -32 -15 -12 -16 -12
-10 4 14 36 -2 47 -72 49 l-66 1 60 6 c122 12 225 13 225 2z m3040 -3 c0 -7 3
-23 6 -35 4 -14 2 -23 -5 -23 -6 0 -11 10 -11 22 0 20 -1 21 -20 3 -11 -10
-20 -13 -20 -7 0 6 -3 17 -6 25 -5 14 -1 17 49 26 4 0 7 -5 7 -11z m484 -23
c4 -11 -2 -15 -24 -15 -20 0 -30 5 -30 15 0 9 9 15 24 15 13 0 26 -7 30 -15z
m-3869 -5 c3 -5 -3 -10 -15 -10 -12 0 -18 5 -15 10 3 6 10 10 15 10 5 0 12 -4
15 -10z m276 -27 c-9 -16 -10 -14 -11 12 0 21 3 26 11 18 8 -8 8 -16 0 -30z
m-681 12 c0 -8 -9 -15 -20 -15 -13 0 -18 5 -14 15 4 8 12 15 20 15 8 0 14 -7
14 -15z m50 0 c0 -8 -4 -15 -10 -15 -5 0 -10 7 -10 15 0 8 5 15 10 15 6 0 10
-7 10 -15z m80 10 c0 -2 -10 -10 -22 -16 -21 -11 -22 -11 -9 4 13 16 31 23 31
12z m334 -30 c7 -27 6 -29 -9 -14 -9 9 -13 23 -9 33 8 21 9 19 18 -19z m56 21
c0 -17 -27 -29 -35 -16 -4 6 -3 15 0 20 9 15 35 12 35 -4z m59 -7 c-9 -17 -13
-19 -19 -8 -11 16 -4 29 16 29 12 0 13 -4 3 -21z m-299 5 c0 -3 -7 -12 -15
-20 -13 -14 -15 -13 -15 5 0 12 6 21 15 21 8 0 15 -3 15 -6z m450 -24 c0 -5
-4 -10 -10 -10 -5 0 -10 5 -10 10 0 6 5 10 10 10 6 0 10 -4 10 -10z m-710 -10
c0 -5 -5 -10 -11 -10 -5 0 -7 5 -4 10 3 6 8 10 11 10 2 0 4 -4 4 -10z m4250
-192 c0 -12 -3 -18 -7 -14 -11 10 -12 36 -2 36 5 0 9 -10 9 -22z m-3348 -22
c3 -15 0 -27 -7 -30 -8 -3 -15 7 -17 25 -6 36 18 40 24 5z m2192 -26 c-8 -28
-12 -60 -8 -72 4 -15 2 -19 -7 -16 -20 7 -22 58 -4 101 23 55 36 45 19 -13z
m280 8 c5 -24 3 -28 -15 -28 -16 0 -20 5 -16 20 3 10 0 21 -7 24 -7 3 -6 8 4
15 18 12 25 5 34 -31z m841 -5 c-7 -16 -9 -15 -14 7 l-7 25 -8 -25 -8 -25 -7
25 c-5 18 -3 27 8 31 23 10 46 -15 36 -38z m-3775 17 c0 -11 0 -23 1 -27 0 -5
-7 -9 -15 -11 -12 -3 -16 5 -16 27 0 21 5 31 15 31 8 0 15 -9 15 -20z m3010
-51 c0 -28 -33 -79 -44 -68 -4 4 1 20 11 37 15 27 16 33 3 58 -24 48 -24 50 4
25 16 -15 26 -35 26 -52z m-1370 26 c0 -18 4 -22 20 -18 17 5 20 0 20 -26 0
-17 -4 -31 -10 -31 -5 0 -10 5 -10 12 0 9 -3 9 -12 0 -22 -22 -28 -13 -28 44
0 34 4 53 10 49 6 -3 10 -17 10 -30z m482 13 c-12 -12 0 -70 13 -66 6 2 9 6 8
11 -2 4 3 7 11 7 8 0 21 3 29 6 17 6 29 -27 16 -47 -6 -11 -9 -10 -15 5 -4 11
-9 14 -14 6 -4 -6 -23 -13 -42 -16 l-36 -6 5 46 c5 38 3 46 -11 46 -24 0 -19
18 7 22 28 5 42 -1 29 -14z m193 5 c-24 -60 -27 -74 -16 -87 14 -17 2 -29 -16
-15 -17 15 -17 53 2 89 17 32 42 42 30 13z m285 2 c0 -9 -9 -15 -25 -15 -23 0
-25 -4 -25 -45 0 -32 -4 -45 -14 -45 -8 0 -17 7 -20 16 -9 23 -7 36 4 29 6 -4
10 6 10 22 0 16 5 34 12 41 17 17 58 15 58 -3z m490 12 c0 -20 -69 -131 -77
-124 -7 8 56 127 67 127 6 0 10 -2 10 -3z m-2900 -37 c-7 -12 -9 -31 -7 -42 4
-12 1 -18 -6 -15 -19 6 -20 36 -2 63 20 31 32 25 15 -6z m240 -20 c0 -4 -6
-13 -14 -19 -11 -9 -14 -7 -13 11 0 13 -3 32 -7 43 -7 17 -5 17 13 -4 12 -13
21 -27 21 -31z m2280 10 c0 -34 -9 -60 -21 -60 -4 0 -6 21 -4 48 4 58 3 54 15
47 6 -3 10 -19 10 -35z m-963 0 c-10 -25 -9 -33 3 -40 8 -5 11 -12 8 -16 -10
-9 -37 3 -44 19 -7 20 13 67 30 67 12 0 12 -5 3 -30z m143 -25 c0 -21 -17 -45
-32 -45 -5 0 -4 10 3 21 8 16 8 28 0 46 -16 34 -14 39 9 18 11 -10 20 -28 20
-40z m475 8 c-4 -21 -2 -40 6 -49 16 -20 7 -26 -25 -18 -19 4 -24 10 -17 18 6
7 11 28 12 47 3 42 7 51 21 43 5 -4 7 -21 3 -41z m92 28 c17 -28 -6 -46 -33
-26 -11 8 -14 15 -6 15 6 0 12 7 12 15 0 21 13 19 27 -4z m-2819 -26 c-1 -20
-7 -36 -16 -40 -12 -4 -13 1 -9 25 4 18 2 30 -4 30 -6 0 -7 5 -4 10 15 24 34
9 33 -25z m64 1 c2 -23 -1 -30 -19 -32 -32 -5 -36 10 -12 40 25 31 26 31 31
-8z m165 26 c8 -5 8 -12 -3 -27 -12 -16 -16 -17 -23 -6 -9 14 -4 41 8 41 3 0
11 -4 18 -8z m399 -26 c1 -15 -4 -22 -17 -22 -12 0 -18 5 -15 13 3 7 1 15 -4
18 -18 11 -10 22 13 18 14 -3 22 -12 23 -27z m111 3 c1 -19 -4 -24 -23 -25
-26 -2 -30 7 -13 37 13 26 33 19 36 -12z m2493 17 c0 -8 -7 -16 -15 -20 -15
-5 -22 -28 -7 -23 4 1 9 -2 12 -8 3 -5 -10 -11 -27 -13 -38 -4 -45 16 -13 36
11 7 17 18 14 27 -4 10 0 15 15 15 12 0 21 -6 21 -14z m544 8 c20 -8 21 -44 1
-44 -9 0 -15 -9 -15 -25 0 -42 -18 -28 -22 18 -6 57 -1 65 36 51z m-3843 -37
c-13 -13 -31 0 -24 19 4 11 8 12 20 3 9 -8 10 -16 4 -22z m187 -8 c1 -24 -2
-28 -12 -20 -7 6 -15 9 -18 6 -2 -3 -5 8 -5 24 0 41 34 31 35 -10z m211 11 c9
-28 0 -42 -14 -20 -3 5 -12 7 -19 4 -21 -8 -28 12 -10 30 22 23 31 20 43 -14z
m351 21 c0 -5 -3 -17 -6 -25 -6 -15 -8 -15 -19 1 -10 13 -10 20 -2 25 16 10
27 10 27 -1z m709 -38 c-5 -21 -9 -53 -9 -70 0 -18 -5 -33 -11 -33 -8 0 -9 15
-4 46 5 36 3 50 -11 65 -16 18 -16 19 4 19 12 0 22 5 22 11 0 5 4 8 9 5 5 -4
5 -22 0 -43z m345 38 c3 -5 -1 -11 -9 -15 -19 -7 -19 -26 0 -26 18 0 20 -20 3
-21 -7 -1 -19 -2 -27 -3 -20 -2 -103 -158 -90 -171 7 -7 12 -6 17 1 10 16 72
5 72 -12 0 -8 -5 -14 -11 -14 -5 0 -7 5 -3 12 4 7 3 8 -5 4 -6 -4 -18 -2 -26
4 -12 10 -15 9 -15 -3 0 -12 -9 -15 -34 -12 -30 2 -38 -2 -59 -34 -37 -54
-106 -121 -170 -165 -31 -22 -57 -45 -57 -53 0 -10 50 -13 260 -13 167 0 260
4 260 10 0 14 11 12 35 -5 18 -14 18 -16 2 -32 -11 -11 -17 -13 -17 -5 0 9
-65 12 -270 12 l-270 0 0 -189 c0 -113 -4 -192 -10 -196 -6 -4 -11 64 -12 187
l-3 193 -295 3 c-176 1 -298 6 -304 12 -7 7 55 10 179 10 l190 0 -58 24 c-33
14 -86 49 -124 82 -122 109 -132 116 -126 95 6 -24 -13 -61 -32 -61 -19 0 -19
16 0 24 17 6 20 42 5 51 -6 3 -10 11 -10 16 0 6 5 7 10 4 19 -12 10 8 -20 41
-34 39 -73 111 -68 125 2 6 20 -18 41 -53 41 -71 81 -115 181 -203 86 -77 133
-104 211 -126 68 -18 74 -17 76 15 1 18 2 18 8 -4 6 -21 13 -25 40 -22 18 1
48 9 67 17 l34 14 0 196 c0 119 -4 194 -9 190 -5 -3 -12 -2 -15 3 -7 12 30 56
41 49 14 -9 24 -47 12 -47 -5 0 -9 -81 -9 -185 0 -102 4 -185 9 -185 22 0 133
94 175 149 26 34 44 61 41 61 -4 0 7 13 23 29 16 16 48 67 72 113 56 108 79
135 94 109z m71 -1 c3 -5 -2 -10 -12 -11 -14 0 -14 -2 5 -9 12 -5 22 -16 22
-25 0 -20 -28 -31 -43 -16 -8 8 -7 11 6 11 9 0 17 5 17 10 0 6 -6 10 -14 10
-21 0 -31 21 -15 31 18 11 26 11 34 -1z m93 -13 c2 -12 -4 -17 -20 -18 l-23
-2 23 -4 c25 -5 29 -21 8 -29 -17 -6 -56 12 -56 26 0 14 43 51 55 47 5 -2 11
-11 13 -20z m302 14 c0 -6 -4 -12 -9 -15 -5 -3 -7 -15 -4 -26 6 -22 -11 -26
-37 -10 -12 7 -12 12 4 29 17 18 17 19 -1 24 -10 3 -4 5 15 6 17 0 32 -3 32
-8z m1330 0 c0 -5 -7 -14 -15 -21 -21 -18 -19 -29 5 -23 11 3 20 1 20 -5 0
-10 -32 -22 -62 -22 -27 0 -22 26 10 50 l27 21 -28 -6 c-19 -4 -26 -2 -22 5 8
12 65 14 65 1z m-3050 -6 c0 -2 -9 -9 -19 -14 -14 -8 -20 -7 -25 4 -4 11 2 15
19 15 14 0 25 -2 25 -5z m1130 -14 c0 -11 2 -26 5 -33 4 -10 -4 -14 -30 -15
-30 -1 -35 2 -35 21 0 27 18 46 42 46 11 0 18 -7 18 -19z m70 9 c0 -6 -7 -10
-15 -10 -8 0 -15 -9 -15 -20 0 -28 -17 -25 -22 5 -3 13 -4 26 -2 28 8 8 54 5
54 -3z m280 0 c0 -5 -4 -10 -10 -10 -5 0 -10 -5 -10 -11 0 -6 7 -8 16 -5 10 4
14 1 12 -6 -3 -7 -14 -14 -25 -16 -24 -4 -38 24 -22 44 13 16 39 19 39 4z
m1175 0 c4 -6 -5 -10 -20 -10 -15 0 -24 4 -20 10 3 6 12 10 20 10 8 0 17 -4
20 -10z m1091 3 c-4 -5 -51 -10 -104 -13 l-97 -5 1 -42 c0 -24 -1 -43 -3 -43
-12 0 -19 49 -11 72 9 25 15 27 71 31 127 7 150 7 143 0z m-1893 -10 c-7 -2
-21 -2 -30 0 -10 3 -4 5 12 5 17 0 24 -2 18 -5z m1937 -23 c0 -10 -4 -22 -10
-25 -6 -4 -10 7 -10 25 0 18 4 29 10 25 6 -3 10 -15 10 -25z m-1930 0 c0 -5
-13 -10 -30 -10 -16 0 -30 5 -30 10 0 6 14 10 30 10 17 0 30 -4 30 -10z m1890
-26 c0 -13 -2 -24 -4 -24 -2 0 -13 -3 -23 -7 -17 -7 -17 -6 0 11 11 12 15 25
11 38 -4 14 -2 18 5 14 6 -4 11 -18 11 -32z m-1390 17 c0 -12 -26 -21 -58 -21
-26 1 -26 1 -8 15 22 16 66 20 66 6z m1244 -7 c9 -24 8 -27 -11 -20 -9 4 -20
1 -25 -6 -5 -9 -8 -6 -8 9 0 19 11 30 31 32 4 1 10 -6 13 -15z m-261 -18 c15
-22 15 -23 -14 -22 -23 1 -29 6 -29 24 0 29 24 28 43 -2z m67 18 c0 -3 -7 -12
-15 -20 -13 -14 -15 -13 -15 5 0 12 6 21 15 21 8 0 15 -3 15 -6z m70 -9 c0 -8
-7 -15 -15 -15 -8 0 -15 7 -15 15 0 8 7 15 15 15 8 0 15 -7 15 -15z m230 9 c0
-3 -6 -12 -14 -20 -16 -15 -32 -2 -21 16 7 11 35 14 35 4z m-63 -10 c-3 -3
-12 -4 -19 -1 -8 3 -5 6 6 6 11 1 17 -2 13 -5z m-2969 -46 c7 2 12 -5 12 -18
0 -15 -5 -20 -14 -17 -9 4 -16 -3 -20 -16 -5 -20 -6 -20 -24 -4 -10 9 -24 17
-30 17 -7 0 -12 6 -12 13 0 15 17 43 23 37 2 -3 11 -16 20 -30 16 -24 17 -24
17 -3 0 12 -4 25 -10 28 -5 3 -10 12 -10 18 1 7 8 3 18 -9 10 -11 23 -19 30
-16z m-190 -20 c1 -40 0 -42 -14 -23 -14 19 -16 19 -28 3 -19 -26 -26 -22 -26
17 0 24 5 35 15 35 8 0 15 -8 16 -17 0 -15 3 -14 16 5 8 12 17 22 18 22 1 0 3
-19 3 -42z m3302 32 c0 -5 -4 -10 -10 -10 -5 0 -10 5 -10 10 0 6 5 10 10 10 6
0 10 -4 10 -10z m-3232 -35 c-1 -37 -28 -52 -28 -15 0 14 -5 18 -16 13 -14 -5
-13 -3 2 15 28 33 44 28 42 -13z m26 -48 c-9 -24 -23 -11 -17 14 3 12 9 17 15
11 5 -5 6 -16 2 -25z m1492 -308 c-2 -175 0 -319 4 -319 4 0 14 7 21 17 8 9
27 24 43 34 58 35 116 259 121 462 2 119 18 150 23 44 l3 -67 38 6 c24 4 41 2
45 -5 4 -6 2 -11 -3 -11 -6 0 -10 -6 -8 -12 1 -8 -12 -14 -35 -16 -22 -2 -38
-9 -38 -15 0 -58 -26 -193 -51 -263 -17 -47 -29 -88 -26 -90 6 -6 98 57 211
146 280 221 319 250 329 250 18 -1 -54 -63 -234 -202 -90 -70 -173 -134 -184
-142 -11 -9 -15 -15 -10 -15 19 -1 250 29 310 39 33 5 90 10 127 10 84 0 103
-19 21 -22 -61 -1 -64 -2 -183 -17 -72 -10 -293 -46 -335 -56 -23 -5 -135
-102 -135 -117 0 -7 114 -8 350 -3 314 6 350 5 350 -9 0 -14 -41 -16 -371 -16
l-371 0 14 -22 c36 -55 174 -118 246 -112 20 1 41 -1 47 -5 34 -27 130 -45
280 -51 l160 -7 -140 -2 c-142 -2 -384 27 -430 52 -11 6 -50 26 -88 45 -37 19
-72 43 -78 53 -18 34 -29 20 -27 -31 2 -32 8 -50 16 -50 6 0 12 -8 11 -17 0
-11 -3 -13 -6 -5 -15 36 -18 -9 -15 -218 2 -158 0 -230 -7 -230 -10 0 -18 338
-11 513 1 37 -2 67 -6 67 -20 0 -130 -92 -141 -117 -8 -19 -12 -22 -13 -10 0
18 -54 -18 -171 -115 -149 -123 -259 -207 -263 -200 -3 5 29 35 71 68 42 32
81 64 87 69 6 6 29 24 51 40 22 17 63 48 90 70 28 22 99 78 159 125 l108 85
-356 3 c-275 2 -356 5 -356 15 0 9 77 11 352 8 l352 -3 -36 40 c-74 82 -114
198 -129 376 -5 67 -14 138 -18 158 -8 37 6 108 21 108 9 0 11 -13 9 -105 -2
-126 24 -302 59 -390 40 -101 63 -139 95 -153 14 -7 28 -12 30 -12 3 0 5 153
5 341 0 225 3 338 10 334 7 -4 9 -118 6 -326z m-1389 291 c-5 -31 -17 -36 -17
-7 0 15 4 27 10 27 5 0 9 -9 7 -20z m753 -55 c0 -2 -25 -4 -55 -4 -47 0 -55 3
-55 19 0 16 4 18 23 12 31 -11 57 -4 57 16 0 11 6 6 15 -12 8 -15 15 -30 15
-31z m215 35 c3 -5 1 -10 -4 -10 -6 0 -11 5 -11 10 0 6 2 10 4 10 3 0 8 -4 11
-10z m105 6 c0 -3 -4 -8 -10 -11 -5 -3 -10 -1 -10 4 0 6 5 11 10 11 6 0 10 -2
10 -4z m60 -28 c0 -12 -3 -18 -7 -14 -10 10 -11 46 -1 40 4 -3 8 -15 8 -26z
m-350 0 c0 -16 -3 -19 -11 -11 -6 6 -8 16 -5 22 11 17 16 13 16 -11z m34 7
c-7 -16 -24 -21 -24 -6 0 8 7 13 27 20 1 1 0 -6 -3 -14z m86 -7 c0 -16 -3 -19
-11 -11 -6 6 -8 16 -5 22 11 17 16 13 16 -11z m197 -3 c-4 -8 -11 -15 -17 -15
-7 0 -7 6 0 21 13 23 26 19 17 -6z m-733 0 c3 -9 0 -15 -9 -15 -8 0 -15 7 -15
15 0 8 4 15 9 15 5 0 11 -7 15 -15z m257 6 c6 9 9 10 9 2 0 -6 -4 -15 -10 -18
-14 -9 -32 4 -23 18 5 8 8 7 11 -2 4 -11 6 -11 13 0z m316 -6 c0 -8 -6 -15
-14 -15 -14 0 -17 12 -6 23 11 11 20 8 20 -8z m89 -12 c-10 -10 -19 5 -10 18
6 11 8 11 12 0 2 -7 1 -15 -2 -18z m231 12 c0 -8 -4 -15 -8 -15 -11 0 -20 16
-12 24 11 11 20 7 20 -9z m87 6 c3 -5 -1 -14 -8 -20 -12 -10 -13 -8 -9 8 6 23
9 25 17 12z m481 -31 c0 -8 4 -20 8 -27 4 -7 -1 -14 -14 -18 -26 -9 -31 -3
-34 35 -2 27 0 31 19 28 11 -2 21 -10 21 -18z m-1825 -15 c0 -8 -4 -17 -10
-20 -6 -4 -10 5 -10 20 0 15 4 24 10 20 6 -3 10 -12 10 -20z m-1205 5 c-4 -6
-10 -24 -15 -41 -7 -24 -5 -33 13 -49 16 -15 17 -20 5 -20 -29 0 -49 33 -39
68 12 39 19 52 32 52 6 0 7 -5 4 -10z m205 -50 c0 -21 -27 -46 -38 -35 -4 4
-1 10 6 12 17 6 15 38 -3 53 -8 7 -12 17 -8 23 8 13 43 -29 43 -53z m454 33
c-17 -34 -18 -70 -1 -76 6 -2 9 -7 6 -11 -3 -3 -14 -4 -23 0 -21 8 -21 62 0
92 22 31 36 27 18 -5z m3566 -44 c0 -10 -4 -19 -10 -19 -5 0 -10 5 -10 10 0
16 -27 11 -34 -6 -4 -9 -9 -14 -13 -11 -3 4 2 25 12 48 l19 41 18 -22 c10 -12
18 -31 18 -41z m-4090 29 c24 -27 26 -42 3 -29 -12 6 -21 5 -31 -7 -13 -16
-13 -15 -8 1 3 10 6 27 6 38 0 24 5 24 30 -3z m315 -5 c-20 -20 -15 -49 8 -45
9 2 17 -2 17 -8 0 -20 -48 -11 -55 10 -8 24 20 74 36 65 5 -4 3 -13 -6 -22z
m127 -10 c-10 -4 -8 -8 5 -18 23 -17 13 -27 -32 -31 -27 -2 -38 2 -46 18 -16
30 -4 51 25 44 14 -3 28 -1 32 5 4 8 10 7 18 -1 8 -9 8 -14 -2 -17z m-502 7
c0 -5 -9 -10 -19 -10 -11 0 -23 5 -26 10 -4 6 5 10 19 10 14 0 26 -4 26 -10z
m650 3 c0 -5 3 -19 7 -33 6 -22 5 -24 -10 -12 -9 8 -20 11 -25 8 -6 -3 -9 5
-8 19 1 17 7 25 19 25 9 0 17 -3 17 -7z m2228 -1 c11 10 13 8 11 -7 -2 -11 0
-26 5 -34 7 -11 4 -13 -17 -7 -14 3 -29 2 -32 -4 -3 -5 -11 -10 -18 -10 -8 0
-8 3 1 12 7 7 12 23 12 37 0 19 3 22 12 13 9 -9 15 -9 26 0z m-2644 -17 c4
-11 -1 -15 -18 -15 -13 0 -23 6 -23 15 0 8 8 15 18 15 9 0 19 -7 23 -15z
m2454 8 c-2 -5 -21 -43 -41 -85 -35 -73 -57 -103 -57 -78 0 6 9 29 21 52 18
35 19 44 8 64 -13 25 -4 48 10 26 6 -9 12 -7 26 8 17 19 41 28 33 13z m-1558
-38 c0 -8 -4 -17 -10 -20 -6 -4 -10 5 -10 20 0 15 4 24 10 20 6 -3 10 -12 10
-20z m2665 -84 c150 -88 164 -98 95 -65 -30 15 -66 34 -80 44 -14 9 -55 33
-93 53 l-67 37 2 -207 3 -206 80 1 c52 1 71 -2 55 -7 -14 -4 -52 -7 -85 -7
l-60 1 -3 229 c-2 219 -2 229 15 214 10 -9 72 -48 138 -87z m-1885 56 c0 -7
-6 -19 -12 -26 -10 -11 -10 -14 0 -18 6 -3 12 -9 12 -15 0 -6 -7 -7 -16 -4 -9
4 -23 1 -31 -6 -12 -10 -13 -7 -8 14 4 15 2 29 -4 32 -6 4 -11 12 -11 18 0 6
7 5 16 -3 15 -12 18 -11 28 4 13 20 26 22 26 4z m-1340 -17 c0 -5 -4 -10 -10
-10 -5 0 -10 5 -10 10 0 6 5 10 10 10 6 0 10 -4 10 -10z m560 -21 c0 -10 -4
-19 -10 -19 -5 0 -10 12 -10 26 0 14 4 23 10 19 6 -3 10 -15 10 -26z m-942 -4
c-3 -3 -9 2 -12 12 -6 14 -5 15 5 6 7 -7 10 -15 7 -18z m292 18 c-8 -4 -21
-13 -28 -22 -11 -14 -11 -13 -2 7 6 12 18 22 28 21 14 0 14 -2 2 -6z m202 -29
c-9 -16 -10 -14 -9 8 1 15 6 23 11 18 4 -4 4 -16 -2 -26z m2495 21 c-10 -23
11 -28 25 -5 7 11 18 20 25 20 16 0 17 -16 3 -25 -6 -4 -22 -29 -36 -57 -27
-54 -45 -59 -23 -6 10 24 10 33 1 36 -13 4 -16 34 -5 45 11 12 15 8 10 -8z
m-3154 -10 c-3 -9 -8 -14 -10 -11 -3 3 -2 9 2 15 9 16 15 13 8 -4z m97 0 c0
-12 -10 -15 -40 -13 -22 2 -40 7 -40 12 0 4 16 6 35 4 19 -2 35 0 35 4 0 4 2
8 5 8 3 0 5 -7 5 -15z m40 5 c0 -5 -5 -10 -11 -10 -5 0 -7 5 -4 10 3 6 8 10
11 10 2 0 4 -4 4 -10z m373 -5 c-3 -9 -8 -14 -10 -11 -3 3 -2 9 2 15 9 16 15
13 8 -4z m2797 5 c0 -5 -17 -10 -37 -9 -34 1 -35 2 -13 9 36 11 50 11 50 0z
m90 1 c0 -5 -7 -12 -16 -15 -14 -5 -14 -9 -3 -23 13 -15 11 -16 -10 -10 -13 3
-33 1 -43 -4 -18 -9 -18 -8 -8 10 6 12 8 26 4 32 -4 7 0 9 12 5 11 -3 26 -1
34 4 19 12 30 13 30 1z m-3466 -13 c-3 -4 -9 -8 -15 -8 -5 0 -9 4 -9 8 0 5 7
9 15 9 8 0 12 -4 9 -9z m346 2 c0 -5 -5 -10 -11 -10 -5 0 -7 5 -4 10 3 6 8 10
11 10 2 0 4 -4 4 -10z m3020 -20 c0 -5 -14 -10 -31 -10 -17 0 -28 4 -24 10 3
6 17 10 31 10 13 0 24 -4 24 -10z m718 -128 c65 -34 50 -36 -18 -2 -33 17 -60
32 -60 35 0 6 24 -5 78 -33z m-2921 -19 c-3 -10 -5 -4 -5 12 0 17 2 24 5 18 2
-7 2 -21 0 -30z m825 -7 c1 -11 12 -20 22 -22 47 -7 34 -58 -13 -52 -24 3 -26
7 -29 58 -2 35 0 51 6 45 6 -5 12 -19 14 -29z m-1078 -25 c-8 -49 -18 -52 -39
-11 -21 41 -18 60 5 30 19 -24 20 -24 20 -4 0 20 10 38 17 30 2 -2 1 -22 -3
-45z m696 42 c0 -19 -55 -173 -62 -173 -12 0 -10 24 7 63 20 47 19 50 -7 62
-13 6 -24 18 -26 28 -5 25 15 21 22 -5 6 -23 6 -23 27 5 19 25 39 36 39 20z
m-470 -18 c13 -16 6 -65 -10 -65 -6 0 -8 11 -4 25 4 15 1 32 -6 40 -7 8 -8 15
-2 15 5 0 15 -7 22 -15z m972 3 c20 20 30 13 14 -10 -11 -16 -12 -26 -5 -40
14 -26 2 -36 -15 -13 -13 18 -14 18 -25 -4 -7 -13 -15 -20 -18 -17 -3 3 2 17
12 32 12 19 14 29 6 37 -17 17 -13 31 4 17 12 -10 19 -10 27 -2z m-1156 -32
c0 -24 -4 -32 -13 -29 -14 6 -17 22 -7 47 10 27 20 18 20 -18z m79 1 c1 -19
-4 -27 -16 -27 -16 0 -18 16 -10 58 1 2 7 2 14 0 6 -3 12 -17 12 -31z m75 -3
c0 -7 -9 -18 -20 -24 -11 -6 -20 -7 -20 -3 0 4 -7 -2 -15 -13 -8 -10 -15 -14
-15 -7 0 6 5 15 10 18 6 3 10 14 10 24 0 26 21 43 37 30 7 -7 13 -17 13 -25z
m-1010 4 c0 -7 -19 -9 -49 -6 l-49 5 -7 -64 c-6 -61 -16 -76 -31 -51 -4 6 -2
14 4 16 7 2 12 25 12 57 0 29 4 55 10 57 21 7 110 -4 110 -14z m890 -2 c0 -11
-19 -15 -25 -6 -3 5 1 10 9 10 9 0 16 -2 16 -4z m674 -19 c14 -21 -13 -51 -37
-41 -20 7 -22 35 -5 52 15 15 28 11 42 -11z m205 10 c14 -18 4 -27 -28 -26
l-26 1 25 8 c24 8 24 8 3 9 -13 1 -23 6 -23 11 0 15 36 12 49 -3z m-702 -44
c-3 -10 -5 -2 -5 17 0 19 2 27 5 18 2 -10 2 -26 0 -35z m1033 9 c-1 -25 -2
-26 -14 -9 -14 18 -15 18 -25 0 -6 -10 -11 -13 -11 -6 0 6 -3 18 -6 26 -4 11
2 17 18 19 32 6 38 1 38 -30z m-2135 -2 c4 -6 0 -21 -9 -34 -14 -22 -14 -24 7
-31 l22 -8 -24 -4 c-34 -7 -49 12 -28 35 21 23 22 36 2 28 -8 -3 -15 -2 -15 3
0 21 34 29 45 11z m425 -54 c0 -13 3 -31 6 -40 4 -11 0 -16 -13 -16 -17 0 -19
6 -17 38 2 44 2 42 14 42 6 0 10 -11 10 -24z m677 -33 c-3 -10 -5 -4 -5 12 0
17 2 24 5 18 2 -7 2 -21 0 -30z m2781 -20 c-16 -2 -40 -2 -55 0 -16 2 -3 4 27
4 30 0 43 -2 28 -4z m80 0 c-10 -2 -26 -2 -35 0 -10 3 -2 5 17 5 19 0 27 -2
18 -5z m110 0 c-15 -2 -42 -2 -60 0 -18 2 -6 4 27 4 33 0 48 -2 33 -4z m-2971
-95 c-2 -13 -4 -3 -4 22 0 25 2 35 4 23 2 -13 2 -33 0 -45z m-421 -35 c-4 -8
2 -12 17 -10 17 2 23 -4 25 -25 2 -16 -1 -28 -7 -28 -6 0 -11 7 -11 15 0 20
-16 19 -24 -2 -12 -31 -22 2 -18 57 4 47 6 51 14 31 5 -14 6 -31 4 -38z m836
34 c-26 -28 -28 -62 -5 -76 10 -5 15 -13 10 -17 -9 -9 -47 25 -47 43 0 26 30
73 47 73 14 0 13 -4 -5 -23z m198 4 c23 -44 0 -121 -36 -121 -12 0 -11 5 5 26
25 32 27 71 4 96 -15 16 -15 18 0 18 9 0 21 -9 27 -19z m-910 -36 c-11 -28 3
-61 20 -50 5 3 11 1 15 -5 9 -14 -38 -13 -53 2 -17 17 -15 48 5 70 21 24 26
18 13 -17z m148 10 c21 -27 19 -56 -4 -76 -18 -15 -32 -3 -16 13 17 17 15 48
-5 70 -9 10 -11 18 -5 18 6 0 19 -11 30 -25z m275 4 c-9 -9 -6 -16 9 -29 14
-11 19 -23 15 -33 -7 -19 -42 -23 -52 -7 -3 6 3 10 14 10 27 0 26 7 -1 29 -23
19 -18 41 10 41 12 0 13 -3 5 -11z m3031 -4 c-4 -8 -8 -15 -10 -15 -2 0 -4 7
-4 15 0 8 4 15 10 15 5 0 7 -7 4 -15z m-3813 -8 c-8 -11 -5 -16 13 -25 20 -9
27 -7 42 9 19 21 39 25 49 9 3 -6 -6 -15 -22 -21 l-28 -12 35 -10 35 -11 -28
-4 c-16 -2 -35 2 -43 9 -11 9 -18 9 -26 1 -15 -15 -48 -16 -48 -1 0 5 4 8 9 4
5 -3 12 -1 16 5 3 5 -6 15 -20 20 -23 9 -25 13 -15 25 7 8 19 15 27 15 12 0
13 -3 4 -13z m458 -8 c-9 -17 -8 -23 2 -30 11 -6 10 -9 -4 -15 -24 -9 -45 12
-29 28 18 18 15 26 -10 31 -14 3 -8 5 15 6 36 1 37 0 26 -20z m-293 -5 c-26
-25 -20 -45 10 -38 19 5 25 4 20 -5 -10 -16 -56 -14 -62 3 -8 20 13 56 32 56
14 0 14 -2 0 -16z m720 1 c-11 -8 -23 -15 -28 -15 -4 0 -8 -5 -8 -11 0 -6 9
-9 20 -6 13 3 20 0 20 -10 0 -19 -40 -13 -53 9 -15 23 8 48 42 48 25 -1 25 -1
7 -15z m244 -26 c0 -16 -4 -29 -10 -29 -5 0 -10 16 -10 36 0 21 4 33 10 29 6
-3 10 -19 10 -36z m66 16 c-4 -17 -2 -25 6 -26 7 0 3 -5 -10 -11 -30 -15 -52
3 -32 27 8 10 9 15 1 15 -6 0 -11 5 -11 10 0 6 12 10 26 10 23 0 25 -3 20 -25z
m-254 3 c-18 -18 -15 -28 8 -28 11 0 20 -4 20 -10 0 -16 -50 -12 -56 5 -9 22
3 45 23 45 13 0 14 -3 5 -12z m-324 -20 c3 -14 -3 -18 -26 -18 -25 0 -29 3
-25 21 7 25 46 22 51 -3z m1392 -61 c0 -3 -7 -7 -15 -11 -11 -4 -15 2 -15 20
0 23 2 24 15 10 8 -8 15 -17 15 -19z m700 23 c0 -5 -4 -10 -10 -10 -5 0 -10 5
-10 10 0 6 5 10 10 10 6 0 10 -4 10 -10z m-750 -27 c0 -7 -4 -13 -9 -13 -5 0
-13 6 -19 13 -8 10 -6 13 9 13 10 0 19 -6 19 -13z m237 -5 c-3 -8 -6 -5 -6 6
-1 11 2 17 5 13 3 -3 4 -12 1 -19z m248 12 c3 -5 1 -10 -4 -10 -6 0 -11 5 -11
10 0 6 2 10 4 10 3 0 8 -4 11 -10z m182 -22 c-3 -8 -6 -5 -6 6 -1 11 2 17 5
13 3 -3 4 -12 1 -19z m-1769 -53 c16 -34 16 -33 -13 -31 -25 1 -30 11 -19 40
9 23 19 20 32 -9z m243 6 c-12 -8 -12 -12 -2 -24 7 -9 8 -18 3 -21 -14 -8 -35
21 -28 39 3 8 13 15 23 15 15 0 15 -2 4 -9z m2109 -72 c0 -48 3 -68 11 -63 6
3 9 14 6 23 -3 11 3 16 20 17 19 2 22 -1 12 -12 -9 -11 -9 -17 0 -28 10 -11 7
-14 -11 -13 -13 1 -44 -2 -70 -7 -32 -5 -48 -4 -48 3 0 6 13 11 29 11 26 0 41
14 41 41 0 5 -11 9 -25 9 -14 0 -25 5 -25 10 0 6 12 10 26 10 21 0 25 4 22 23
-3 19 -9 22 -45 21 -74 -1 -47 21 30 25 l27 1 0 -71z m103 44 c-8 -3 -13 -25
-13 -59 0 -42 3 -54 16 -54 8 0 12 -4 9 -10 -3 -5 -13 -10 -21 -10 -11 0 -14
16 -14 70 0 60 2 70 18 69 10 0 12 -3 5 -6z m-730 -37 c-1 -14 2 -26 8 -26 5
0 9 -4 9 -10 0 -13 -20 -13 -40 0 -12 7 -12 12 -2 22 17 17 15 29 -3 22 -8 -4
-15 -2 -15 4 0 12 20 22 35 18 6 -2 9 -15 8 -30z m1007 -36 c0 -57 -3 -70 -16
-70 -10 0 -12 4 -7 13 10 15 11 107 1 107 -5 0 -8 5 -8 10 0 6 7 10 15 10 12
0 15 -14 15 -70z m155 40 c8 0 19 8 24 18 9 15 10 15 11 -4 0 -24 -19 -85 -31
-98 -10 -11 -25 26 -34 80 -5 31 -4 35 5 22 6 -10 17 -18 25 -18z m-2671 7
c15 -11 17 -18 8 -33 -7 -11 -12 -13 -12 -6 0 9 -7 11 -20 7 -11 -4 -20 -2
-20 4 0 6 -10 12 -22 12 l-23 2 23 4 c12 2 22 9 22 14 0 13 23 11 44 -4z
m-117 -13 c-3 -3 -12 -4 -19 -1 -8 3 -5 6 6 6 11 1 17 -2 13 -5z m260 -26 c-3
-7 -5 -2 -5 12 0 14 2 19 5 13 2 -7 2 -19 0 -25z m2463 22 c0 -5 -15 -10 -32
-9 -31 1 -32 1 -8 9 35 11 40 11 40 0z m-2230 -10 c0 -5 -5 -10 -11 -10 -5 0
-7 5 -4 10 3 6 8 10 11 10 2 0 4 -4 4 -10z m360 0 c0 -5 -4 -10 -10 -10 -5 0
-10 5 -10 10 0 6 5 10 10 10 6 0 10 -4 10 -10z m457 -25 c31 21 45 10 14 -11
-12 -9 -20 -22 -17 -30 6 -16 -10 -19 -19 -3 -5 7 -14 4 -26 -7 -20 -18 -27
-6 -7 14 9 9 9 18 0 37 -17 38 -15 41 9 11 20 -26 22 -26 46 -11z m1161 10
c-10 -21 -9 -29 5 -43 16 -15 18 -14 29 16 16 42 35 48 35 11 0 -17 -5 -28
-11 -26 -6 3 -19 -3 -29 -11 -16 -14 -20 -14 -39 5 -20 21 -20 23 -4 47 21 33
29 33 14 1z m106 9 c10 -27 7 -51 -11 -65 -15 -13 -15 -12 -5 8 8 15 9 30 2
47 -5 14 -6 26 -1 26 5 0 12 -7 15 -16z m-146 -23 c2 -13 -1 -28 -7 -34 -6 -6
-11 -19 -11 -29 0 -10 -4 -18 -10 -18 -5 0 -10 25 -10 56 0 47 3 55 18 52 9
-2 19 -14 20 -27z m-928 -45 c-18 -31 -36 -59 -42 -62 -19 -12 -17 3 7 38 15
22 21 39 15 43 -15 9 -12 25 3 19 8 -3 20 2 27 11 26 31 21 6 -10 -49z m1220
54 c0 -5 -12 -10 -26 -10 -14 0 -23 4 -19 10 3 6 15 10 26 10 10 0 19 -4 19
-10z m-1280 -14 c0 -15 -37 -32 -47 -22 -4 3 -1 6 7 6 10 0 10 3 0 15 -11 13
-8 15 14 15 16 0 26 -6 26 -14z m710 -2 c0 -6 -13 -11 -30 -10 -30 1 -36 6
-24 19 11 11 54 4 54 -9z m-2033 -41 c-3 -10 -5 -4 -5 12 0 17 2 24 5 18 2 -7
2 -21 0 -30z m2598 27 c4 -6 -7 -10 -27 -9 -31 1 -32 1 -8 9 14 4 26 8 27 9 1
1 5 -3 8 -9z m-4045 -39 c0 -11 3 -26 6 -35 4 -12 0 -16 -15 -16 -22 0 -28 14
-11 25 6 4 8 15 5 26 -4 11 -2 19 4 19 6 0 11 -9 11 -19z m1237 -53 c-3 -8 -6
-5 -6 6 -1 11 2 17 5 13 3 -3 4 -12 1 -19z m210 -20 c-3 -7 -5 -2 -5 12 0 14
2 19 5 13 2 -7 2 -19 0 -25z m2535 0 c-7 -7 -12 -29 -12 -50 0 -29 4 -38 18
-38 14 0 15 -2 2 -10 -24 -15 -36 6 -33 57 1 26 2 49 2 51 1 1 9 2 18 2 13 0
14 -3 5 -12z m-626 -20 c6 -21 -6 -41 -13 -20 -3 6 -9 10 -14 6 -5 -3 -9 0 -9
7 0 8 -4 8 -15 -1 -8 -7 -15 -10 -15 -7 0 3 -2 12 -5 20 -4 10 3 14 29 14 26
0 37 -5 42 -19z m222 -9 c2 -19 1 -21 -7 -9 -8 12 -13 12 -23 2 -18 -18 -38
-15 -38 7 0 12 8 21 23 24 34 6 42 2 45 -24z m-742 -3 c-3 -14 -1 -37 4 -52
12 -30 4 -47 -10 -24 -11 17 -13 83 -3 93 12 13 15 7 9 -17z m234 -40 c0 -25
-16 -53 -25 -44 -4 3 -2 15 4 26 8 16 6 25 -9 45 -28 35 -25 45 5 17 14 -13
25 -33 25 -44z m82 29 c5 -25 -5 -34 -17 -15 -4 7 -12 7 -25 0 -27 -14 -30
-13 -30 14 0 19 6 25 28 28 36 5 39 3 44 -27z m721 14 c19 19 28 12 15 -10
-10 -17 -10 -23 0 -26 6 -3 12 -9 12 -14 0 -6 -7 -6 -19 0 -14 8 -22 7 -31 -4
-7 -9 -15 -13 -18 -10 -3 2 1 12 8 20 11 13 9 20 -11 42 l-24 27 29 -18 c20
-13 31 -15 39 -7z m-2636 -21 c-3 -7 -5 -2 -5 12 0 14 2 19 5 13 2 -7 2 -19 0
-25z m730 6 c11 -24 10 -26 -7 -21 -11 3 -23 1 -26 -4 -10 -17 -24 -9 -24 14
0 45 38 52 57 11z m1503 7 c0 -10 9 -21 20 -24 22 -6 27 -36 8 -55 -20 -20
-48 15 -48 60 0 21 5 38 10 38 6 0 10 -8 10 -19z m-3410 -10 c17 -33 12 -61
-10 -61 -14 0 -20 -7 -20 -24 0 -13 -7 -29 -15 -36 -16 -13 -16 -12 -19 35 -1
20 -7 31 -18 33 -24 5 -23 39 1 51 23 13 31 5 31 -30 0 -22 4 -26 20 -22 22 6
27 42 8 61 -9 9 -9 12 0 12 6 0 16 -9 22 -19z m110 10 c0 -9 -35 -21 -60 -20
-8 0 -1 7 15 14 36 17 45 18 45 6z m352 -19 c-10 -9 -12 -13 -5 -8 8 5 15 3
19 -8 5 -12 10 -13 25 -5 12 6 19 6 19 0 0 -5 -6 -11 -12 -14 -7 -2 -13 -17
-13 -33 0 -19 -6 -30 -17 -32 -15 -3 -18 4 -18 33 0 22 -4 34 -10 30 -6 -3
-13 1 -16 10 -7 18 24 58 38 49 4 -3 0 -13 -10 -22z m2463 -6 c7 3 18 -3 24
-14 8 -15 6 -23 -8 -36 -17 -15 -19 -15 -32 0 -16 20 -22 53 -13 74 6 12 8 10
11 -7 3 -14 9 -20 18 -17z m-3178 6 c-21 -23 -21 -36 -2 -52 19 -15 14 -23 -9
-14 -30 11 -15 84 18 84 5 0 2 -8 -7 -18z m497 12 c20 -8 21 -28 1 -44 -8 -7
-16 -29 -16 -49 -1 -25 -4 -18 -9 24 -8 75 -6 81 24 69z m3766 -14 c0 -11 5
-20 10 -20 6 0 10 -4 10 -9 0 -15 -61 -9 -67 6 -6 16 14 43 33 43 8 0 14 -9
14 -20z m-4206 4 c20 -8 21 -43 1 -50 -9 -4 -15 -19 -15 -35 0 -16 -5 -29 -10
-29 -7 0 -10 21 -9 53 3 68 5 72 33 61z m496 -16 c0 7 4 12 10 12 9 0 9 -4 -5
-45 -5 -17 -8 -17 -14 -5 -5 8 -12 26 -15 40 -7 24 -6 24 8 6 9 -11 16 -14 16
-8z m3813 10 c16 -12 16 -14 -4 -26 -19 -12 -21 -12 -16 2 4 9 -1 20 -11 25
-14 9 -15 10 -1 11 8 0 23 -6 32 -12z m-4233 -18 c7 -14 7 -20 0 -20 -5 0 -10
6 -10 13 -1 7 -6 5 -14 -5 -19 -26 -27 -22 -14 7 14 30 24 32 38 5z m304 11
c15 -6 16 -10 7 -15 -7 -5 -18 -3 -24 3 -7 7 -14 7 -24 0 -13 -12 -19 2 -6 14
8 9 22 8 47 -2z m218 -1 c6 0 8 -3 4 -7 -9 -10 -56 -11 -56 -3 0 13 14 21 28
15 7 -3 19 -5 24 -5z m2468 -10 c0 -29 -3 -34 -23 -35 -23 -2 -30 10 -22 35 8
27 45 27 45 0z m337 0 c3 -11 10 -20 16 -20 26 0 -8 -15 -39 -17 -38 -2 -45
14 -18 41 21 21 35 20 41 -4z m-3134 3 c-7 -2 -19 -2 -25 0 -7 3 -2 5 12 5 14
0 19 -2 13 -5z m15 -20 c-10 -2 -26 -2 -35 0 -10 3 -2 5 17 5 19 0 27 -2 18
-5z m1299 -75 c-3 -7 -5 -2 -5 12 0 14 2 19 5 13 2 -7 2 -19 0 -25z m1758 -16
c0 -9 6 -16 13 -14 9 2 12 -6 10 -25 -3 -31 -34 -44 -44 -19 -8 20 5 91 14 81
4 -3 7 -14 7 -23z m-721 10 c8 -13 -5 -82 -15 -82 -5 0 -9 20 -9 45 0 41 11
58 24 37z m31 -1 c3 -5 1 -12 -4 -15 -5 -3 -11 1 -15 9 -6 16 9 21 19 6z m377
-41 c6 0 20 7 30 17 28 25 35 6 8 -22 -22 -23 -22 -25 -4 -25 16 0 17 -2 4
-10 -21 -14 -30 -12 -30 4 0 8 -4 18 -10 21 -6 3 -7 -1 -4 -9 3 -9 1 -16 -5
-16 -6 0 -11 5 -11 10 0 6 -5 10 -11 10 -7 0 -9 -10 -6 -25 3 -16 -2 -34 -14
-48 -16 -21 -18 -21 -25 -4 -3 10 -2 29 4 42 12 27 -7 42 -27 22 -9 -9 -14 -9
-20 2 -7 11 -11 10 -20 -5 -9 -17 -10 -15 -11 11 0 24 5 31 20 32 11 1 20 -2
20 -8 0 -14 26 -11 40 6 16 19 30 19 30 -1 0 -26 20 -4 21 24 l2 27 4 -27 c2
-16 9 -28 15 -28z m-230 -22 c-3 -16 -8 -26 -12 -21 -12 12 -13 34 -4 62 6 22
8 23 14 7 3 -10 4 -32 2 -48z m68 1 c0 -9 -49 -18 -55 -9 -2 4 3 17 12 30 15
22 17 22 30 5 7 -11 13 -22 13 -26z m-449 -22 c23 -22 24 -46 3 -54 -20 -7
-44 20 -39 45 2 9 4 28 5 42 2 21 3 22 7 5 3 -11 14 -28 24 -38z m275 31 c-2
-14 -11 -24 -24 -26 -24 -4 -30 16 -10 36 20 20 38 14 34 -10z m35 -2 c-9 -11
-9 -15 1 -18 9 -3 9 -6 0 -12 -17 -11 -27 21 -12 39 7 9 15 13 18 10 3 -2 0
-11 -7 -19z m559 9 c0 -8 1 -18 3 -22 3 -10 -43 -11 -49 -1 -8 12 15 38 32 38
8 0 14 -7 14 -15z m-1703 -27 c-3 -7 -5 -2 -5 12 0 14 2 19 5 13 2 -7 2 -19 0
-25z m-1376 -10 c0 -13 2 -31 4 -40 2 -10 -1 -18 -6 -18 -5 0 -9 16 -9 36 0
45 -20 41 -36 -6 l-11 -34 -5 37 c-4 37 2 43 45 46 11 1 17 -7 18 -21z m2986
16 c-3 -3 -12 -4 -19 -1 -8 3 -5 6 6 6 11 1 17 -2 13 -5z m-2890 -27 c-10 -6
-18 -27 -20 -44 -1 -18 -6 -33 -10 -33 -9 0 -4 61 7 79 4 6 15 11 24 11 14 0
14 -1 -1 -13z m-317 -67 c0 -13 -20 -13 -40 0 -12 8 -9 10 13 10 15 0 27 -4
27 -10z"/>
<path d="M1127 4313 c-4 -3 -7 -13 -7 -22 1 -13 3 -13 11 2 11 19 8 33 -4 20z"/>
<path d="M1402 4294 c4 -21 22 -23 26 -1 2 10 -3 17 -13 17 -10 0 -15 -6 -13
-16z"/>
<path d="M911 4201 c-25 -34 -26 -41 -7 -41 10 0 14 -9 13 -26 -1 -15 4 -29
11 -31 9 -3 12 13 12 61 0 36 -2 66 -4 66 -3 0 -14 -13 -25 -29z"/>
<path d="M837 4095 c-20 -27 -37 -57 -37 -67 0 -20 55 -68 78 -68 51 1 59 9
61 69 2 51 -1 59 -18 64 -10 2 -21 15 -24 28 -4 21 -5 20 -7 -6 l-2 -30 -7 30
-7 30 -37 -50z m83 -35 c0 -6 -11 -8 -27 -4 -40 10 -41 14 -5 14 18 0 32 -5
32 -10z m-10 -69 c0 -6 -7 -11 -15 -11 -9 0 -15 10 -15 26 0 23 2 24 15 10 8
-8 15 -19 15 -25z"/>
<path d="M760 3983 c-31 -41 -210 -295 -221 -315 -8 -15 -6 -18 11 -18 12 0
20 -7 20 -17 0 -9 7 -24 15 -33 14 -16 14 -18 -2 -22 -10 -2 -31 -1 -48 3
l-30 7 28 1 c16 1 27 7 27 15 0 22 -18 29 -23 9 -4 -17 -5 -17 -6 0 0 9 -5 17
-10 17 -9 0 -81 -94 -81 -106 0 -3 24 -4 53 -2 43 2 51 6 49 21 -4 23 15 22
30 -3 8 -12 24 -20 40 -20 24 0 28 4 28 29 0 39 -16 81 -42 109 -12 12 -17 22
-11 22 25 0 61 -61 66 -116 l4 -39 107 -3 106 -3 0 36 c0 32 3 35 28 35 l29 0
6 182 c4 100 5 183 3 185 -2 3 -14 0 -26 -7 -27 -14 -53 -6 -95 31 l-33 29
-22 -27z"/>
<path d="M890 3550 c0 -25 4 -31 18 -28 11 2 17 12 17 28 0 16 -6 26 -17 28
-14 3 -18 -3 -18 -28z"/>
<path d="M1705 4120 c-3 -5 -1 -10 4 -10 6 0 11 5 11 10 0 6 -2 10 -4 10 -3 0
-8 -4 -11 -10z"/>
<path d="M1880 4045 c0 -8 2 -15 4 -15 2 0 6 7 10 15 3 8 1 15 -4 15 -6 0 -10
-7 -10 -15z"/>
<path d="M1410 3945 c0 -8 7 -15 15 -15 8 0 15 4 15 9 0 5 -7 11 -15 15 -9 3
-15 0 -15 -9z"/>
<path d="M1570 3950 c0 -5 5 -10 10 -10 6 0 10 5 10 10 0 6 -4 10 -10 10 -5 0
-10 -4 -10 -10z"/>
<path d="M1340 3753 c-41 -92 -75 -168 -164 -370 -21 -46 -51 -120 -67 -165
l-30 -83 44 -40 c85 -77 224 -110 362 -86 102 18 195 73 195 116 0 15 -16 16
-141 13 -125 -3 -143 -1 -153 14 -5 9 -6 21 -2 25 5 4 11 2 13 -4 6 -18 43
-16 43 1 0 9 -12 16 -27 18 -21 2 -29 9 -31 28 -2 22 -1 23 11 8 7 -9 26 -18
42 -20 25 -2 29 -7 27 -25 -3 -23 -2 -23 113 -23 l116 0 -22 33 c-13 17 -30
36 -38 42 -23 14 -113 44 -133 45 -10 0 -18 5 -18 11 0 15 64 3 118 -23 24
-11 45 -19 47 -17 4 4 -22 68 -132 329 -97 230 -115 270 -123 270 -3 0 -26
-44 -50 -97z m56 20 c-11 -11 -19 6 -11 24 8 17 8 17 12 0 3 -10 2 -21 -1 -24z
m4 -58 c0 -8 -4 -15 -10 -15 -5 0 -10 7 -10 15 0 8 5 15 10 15 6 0 10 -7 10
-15z m0 -65 c0 -11 -4 -20 -10 -20 -5 0 -10 9 -10 20 0 11 5 20 10 20 6 0 10
-9 10 -20z m-61 -80 c8 -6 31 -48 31 -55 0 -13 -31 -3 -37 12 -6 15 -7 15 -14
-3 -5 -12 -8 1 -8 36 0 46 1 52 11 35 6 -11 14 -22 17 -25z m61 20 c0 -11 -4
-20 -10 -20 -5 0 -10 9 -10 20 0 11 5 20 10 20 6 0 10 -9 10 -20z m0 -55 c0
-8 -4 -15 -10 -15 -5 0 -10 7 -10 15 0 8 5 15 10 15 6 0 10 -7 10 -15z m0 -59
c0 -8 -4 -18 -10 -21 -5 -3 -10 3 -10 14 0 12 5 21 10 21 6 0 10 -6 10 -14z
m0 -60 c0 -8 -4 -18 -10 -21 -5 -3 -10 3 -10 14 0 12 5 21 10 21 6 0 10 -6 10
-14z m0 -61 c0 -8 -4 -15 -10 -15 -5 0 -10 7 -10 15 0 8 5 15 10 15 6 0 10 -7
10 -15z m70 -54 c0 -5 -14 -9 -32 -9 -18 1 -34 -4 -36 -10 -5 -16 -22 -15 -22
1 0 9 -10 12 -30 9 -18 -3 -30 0 -30 7 0 7 27 11 75 11 41 0 75 -4 75 -9z
m-205 -11 c-3 -5 -11 -10 -16 -10 -6 0 -7 5 -4 10 3 6 11 10 16 10 6 0 7 -4 4
-10z m35 0 c0 -5 -4 -10 -10 -10 -5 0 -10 5 -10 10 0 6 5 10 10 10 6 0 10 -4
10 -10z m-75 -20 c-3 -5 -10 -10 -16 -10 -5 0 -9 5 -9 10 0 6 7 10 16 10 8 0
12 -4 9 -10z m-63 -30 c-36 -22 -42 -24 -42 -12 0 9 39 29 60 31 8 0 0 -8 -18
-19z m428 -35 c0 -8 -7 -15 -15 -15 -8 0 -15 -4 -15 -10 0 -16 -17 -11 -24 7
-4 9 -1 20 6 25 21 13 48 9 48 -7z"/>
<path d="M2477 3753 c-4 -3 -7 -11 -7 -17 0 -6 5 -5 12 2 6 6 9 14 7 17 -3 3
-9 2 -12 -2z"/>
<path d="M2807 3743 c-4 -3 -7 -11 -7 -17 0 -6 5 -5 12 2 6 6 9 14 7 17 -3 3
-9 2 -12 -2z"/>
<path d="M2277 3454 c-1 -2 -81 -8 -177 -15 -96 -6 -176 -12 -177 -13 -2 -1
10 -36 26 -77 15 -41 40 -107 55 -146 26 -68 29 -72 48 -62 16 9 23 8 29 -3
12 -21 270 109 267 134 -2 9 5 23 15 30 18 13 18 16 -5 83 -21 64 -25 70 -51
70 -15 1 -29 0 -30 -1z"/>
<path d="M2365 3280 c-3 -5 1 -10 9 -10 9 0 16 5 16 10 0 6 -4 10 -9 10 -6 0
-13 -4 -16 -10z"/>
<path d="M2045 3119 c-10 -15 3 -25 16 -12 7 7 7 13 1 17 -6 3 -14 1 -17 -5z"/>
<path d="M1765 3210 c3 -5 12 -7 20 -3 21 7 19 13 -6 13 -11 0 -18 -4 -14 -10z"/>
<path d="M2867 2964 c-11 -11 -8 -44 3 -44 15 0 24 30 13 41 -5 5 -12 6 -16 3z"/>
<path d="M3796 3051 c-4 -7 -5 -15 -2 -18 9 -9 19 4 14 18 -4 11 -6 11 -12 0z"/>
<path d="M3045 2950 c-3 -5 -1 -10 4 -10 6 0 11 5 11 10 0 6 -2 10 -4 10 -3 0
-8 -4 -11 -10z"/>
<path d="M592 2601 c4 -13 18 -16 19 -4 0 4 -5 9 -11 12 -7 2 -11 -2 -8 -8z"/>
<path d="M2025 2534 c3 -12 12 -41 20 -65 12 -38 14 -39 8 -9 -3 19 -12 49
-19 65 -8 17 -11 21 -9 9z"/>
<path d="M1936 2388 c3 -18 -1 -52 -9 -74 l-15 -42 30 -6 c17 -3 33 -4 36 -2
7 8 -29 156 -38 156 -5 0 -6 -15 -4 -32z"/>
<path d="M1886 2335 c-3 -9 -6 -22 -5 -28 0 -7 5 -1 10 12 5 13 8 26 5 28 -2
2 -6 -3 -10 -12z"/>
<path d="M3013 2480 c0 -25 2 -35 4 -22 2 12 2 32 0 45 -2 12 -4 2 -4 -23z"/>
<path d="M3012 2360 c0 -19 2 -27 5 -17 2 9 2 25 0 35 -3 9 -5 1 -5 -18z"/>
<path d="M3381 1994 c0 -11 3 -14 6 -6 3 7 2 16 -1 19 -3 4 -6 -2 -5 -13z"/>
<path d="M3695 2489 c-4 -6 -5 -12 -2 -15 2 -3 7 2 10 11 7 17 1 20 -8 4z"/>
<path d="M730 2335 c0 -9 5 -15 11 -13 6 2 11 8 11 13 0 5 -5 11 -11 13 -6 2
-11 -4 -11 -13z"/>
<path d="M456 2343 c-6 -14 -5 -15 5 -6 7 7 10 15 7 18 -3 3 -9 -2 -12 -12z"/>
<path d="M4390 2311 c0 -6 5 -13 10 -16 6 -3 10 1 10 9 0 9 -4 16 -10 16 -5 0
-10 -4 -10 -9z"/>
<path d="M3916 1702 c-3 -6 -1 -14 5 -17 15 -10 25 3 12 16 -7 7 -13 7 -17 1z"/>
<path d="M1435 1190 c-19 -8 -19 -9 3 -9 12 -1 22 4 22 9 0 6 -1 10 -2 9 -2 0
-12 -4 -23 -9z"/>
<path d="M2958 1363 c6 -2 18 -2 25 0 6 3 1 5 -13 5 -14 0 -19 -2 -12 -5z"/>
<path d="M636 1372 c-3 -6 -1 -14 5 -17 15 -10 25 3 12 16 -7 7 -13 7 -17 1z"/>
<path d="M2140 1034 c0 -17 22 -14 28 4 2 7 -3 12 -12 12 -9 0 -16 -7 -16 -16z"/>
<path d="M1225 1061 c-3 -5 -1 -12 5 -16 5 -3 10 1 10 9 0 18 -6 21 -15 7z"/>
<path d="M1775 1040 c-7 -12 2 -30 16 -30 12 0 12 27 0 35 -5 3 -12 1 -16 -5z"/>
<path d="M4400 519 c0 -5 5 -7 10 -4 6 3 10 8 10 11 0 2 -4 4 -10 4 -5 0 -10
-5 -10 -11z"/>
<path d="M4020 506 c0 -9 5 -16 10 -16 6 0 10 4 10 9 0 6 -4 13 -10 16 -5 3
-10 -1 -10 -9z"/>
<path d="M2210 319 c0 -5 5 -7 10 -4 6 3 10 8 10 11 0 2 -4 4 -10 4 -5 0 -10
-5 -10 -11z"/>
<path d="M3765 289 c-4 -6 -3 -15 3 -21 6 -6 11 -4 15 6 7 18 -9 31 -18 15z"/>
<path d="M265 300 c-3 -5 -2 -10 4 -10 5 0 13 5 16 10 3 6 2 10 -4 10 -5 0
-13 -4 -16 -10z"/>
<path d="M3270 274 c0 -8 5 -12 10 -9 6 3 10 10 10 16 0 5 -4 9 -10 9 -5 0
-10 -7 -10 -16z"/>
<path d="M4330 299 c0 -5 5 -7 10 -4 6 3 10 8 10 11 0 2 -4 4 -10 4 -5 0 -10
-5 -10 -11z"/>
<path d="M140 290 c0 -19 3 -21 12 -12 9 9 9 15 0 24 -9 9 -12 7 -12 -12z"/>
<path d="M3190 285 c0 -8 2 -15 4 -15 2 0 6 7 10 15 3 8 1 15 -4 15 -6 0 -10
-7 -10 -15z"/>
<path d="M3520 279 c0 -5 5 -7 10 -4 6 3 10 8 10 11 0 2 -4 4 -10 4 -5 0 -10
-5 -10 -11z"/>
<path d="M3117 94 c-4 -4 -7 -14 -7 -23 0 -11 3 -12 11 -4 6 6 10 16 7 23 -2
6 -7 8 -11 4z"/>
<path d="M2550 80 c0 -5 5 -10 10 -10 6 0 10 5 10 10 0 6 -4 10 -10 10 -5 0
-10 -4 -10 -10z"/>
<path d="M2445 4480 c3 -5 10 -10 16 -10 5 0 9 5 9 10 0 6 -7 10 -16 10 -8 0
-12 -4 -9 -10z"/>
<path d="M323 4134 c-61 -36 -54 -87 15 -100 29 -6 32 -4 33 17 0 13 3 43 5
67 3 23 1 42 -3 42 -4 0 -27 -12 -50 -26z"/>
<path d="M172 4043 c-54 -35 -69 -49 -62 -58 6 -7 13 -35 17 -63 5 -48 7 -50
42 -56 20 -3 60 -6 89 -6 l52 0 0 33 c0 31 2 33 29 29 35 -5 44 8 35 53 -4 25
-11 35 -25 35 -33 0 -68 23 -81 52 -7 15 -15 28 -18 27 -3 0 -38 -21 -78 -46z
m88 -9 c0 -16 -16 -19 -25 -4 -8 13 4 32 16 25 5 -4 9 -13 9 -21z m-40 -24 c0
-5 13 -7 30 -3 27 5 30 3 30 -20 0 -30 -21 -40 -55 -27 -18 7 -25 17 -25 35 0
14 5 25 10 25 6 0 10 -4 10 -10z"/>
<path d="M40 3960 c-13 -9 -13 -11 0 -19 9 -6 19 -6 27 1 28 23 5 39 -27 18z"/>
<path d="M0 3905 c0 -16 6 -25 16 -25 8 0 13 4 10 9 -4 5 0 11 6 13 8 3 4 9
-10 17 -20 11 -22 10 -22 -14z"/>
<path d="M72 3900 c-18 -9 -30 -19 -26 -23 13 -12 62 -8 67 6 10 26 -7 33 -41
17z"/>
<path d="M327 3894 c-11 -11 5 -34 23 -34 15 0 30 18 30 36 0 6 -46 5 -53 -2z"/>
<path d="M0 3465 c0 -22 4 -34 10 -30 13 8 13 52 0 60 -6 4 -10 -8 -10 -30z"/>
<path d="M258 3413 c7 -3 16 -2 19 1 4 3 -2 6 -13 5 -11 0 -14 -3 -6 -6z"/>
<path d="M4452 1484 c-49 -66 -51 -76 -11 -62 47 15 51 20 47 65 l-3 40 -33
-43z"/>
<path d="M4460 1410 c-12 -8 -11 -10 8 -10 12 0 22 5 22 10 0 13 -11 13 -30 0z"/>
<path d="M415 1068 c-66 -83 -150 -188 -187 -232 -37 -45 -68 -86 -68 -92 0
-5 13 -23 30 -39 32 -31 56 -116 46 -166 l-5 -29 124 0 125 0 0 39 c0 37 2 40
33 43 l32 3 3 313 c2 171 -1 312 -5 312 -4 0 -62 -68 -128 -152z"/>
<path d="M127 712 c-24 -26 -21 -33 9 -26 25 6 26 5 19 -25 -4 -20 -3 -31 5
-31 6 0 8 -5 5 -10 -9 -15 -25 -2 -25 21 0 10 -4 19 -10 19 -5 0 -10 -9 -10
-20 0 -11 -4 -20 -10 -20 -5 0 -10 12 -10 28 -1 26 -3 25 -50 -28 -33 -37 -49
-64 -50 -82 0 -26 3 -28 43 -28 23 0 52 -3 65 -6 13 -4 22 -2 22 5 0 6 -7 11
-15 11 -19 0 -19 24 0 40 13 11 18 10 29 -6 10 -13 11 -23 4 -31 -6 -7 -9 -13
-7 -14 34 -7 46 -6 62 3 17 9 19 18 15 80 -5 63 -9 73 -40 104 -33 34 -35 34
-51 16z m63 -122 c0 -12 -44 -12 -80 0 -20 6 -14 8 28 9 28 1 52 -3 52 -9z"/>
<path d="M490 540 c0 -27 3 -30 30 -30 27 0 30 3 30 30 0 27 -3 30 -30 30 -27
0 -30 -3 -30 -30z"/>
<path d="M1322 134 l2 -134 97 0 98 0 -14 27 c-13 24 -12 29 3 46 15 17 17 17
20 3 2 -9 7 -16 11 -16 4 0 7 -12 6 -27 l0 -28 78 -1 c66 -1 75 1 65 13 -9 11
-9 16 1 23 10 6 4 32 -29 117 l-43 110 -148 1 -148 1 1 -135z m205 64 c-3 -8
-6 -5 -6 6 -1 11 2 17 5 13 3 -3 4 -12 1 -19z"/>
<path d="M1966 167 c-4 -46 -4 -102 0 -125 l7 -42 263 0 264 0 0 125 0 125
-264 0 -263 0 -7 -83z"/>
<path d="M4174 205 c-5 -12 -10 -13 -19 -5 -20 16 -99 -6 -91 -26 6 -16 -5
-19 -20 -4 -13 13 -88 -16 -79 -30 3 -5 -3 -8 -12 -7 -29 2 -73 -32 -66 -50 5
-13 2 -15 -12 -10 -23 10 -87 -37 -79 -58 5 -13 56 -15 350 -15 l344 0 0 99 0
99 -30 4 c-18 3 -31 0 -34 -9 -8 -19 -23 -16 -29 7 -7 27 -91 29 -102 3 -6
-17 -7 -17 -19 0 -17 22 -94 24 -102 2z m156 -25 c0 -5 -5 -10 -11 -10 -6 0
-8 -8 -4 -19 6 -20 -18 -46 -35 -36 -5 3 -10 1 -10 -5 0 -6 -5 -8 -10 -5 -6 4
-8 10 -5 15 3 5 1 11 -5 15 -5 3 -10 13 -10 21 0 17 30 19 31 2 0 -10 2 -10 6
0 2 6 11 12 19 12 8 0 14 5 14 10 0 6 5 10 10 10 6 0 10 -4 10 -10z"/>
<path d="M4285 140 c-3 -5 -1 -10 4 -10 6 0 11 5 11 10 0 6 -2 10 -4 10 -3 0
-8 -4 -11 -10z"/>
</g>
</svg>
